G04 PROTEUS GERBER X2 FILE*
%TF.GenerationSoftware,Labcenter,Proteus,8.13-SP0-Build31525*%
%TF.CreationDate,2024-05-03T02:55:58+00:00*%
%TF.FileFunction,Soldermask,Bot*%
%TF.FilePolarity,Negative*%
%TF.Part,Single*%
%TF.SameCoordinates,{cc6bef05-7bf9-4bf0-b406-8ddb23bdf16b}*%
%FSLAX45Y45*%
%MOMM*%
G01*
%TA.AperFunction,Material*%
%ADD19C,1.016000*%
%TA.AperFunction,Material*%
%ADD70C,1.778000*%
%AMPPAD011*
4,1,36,
0.762000,0.635000,
0.762000,-0.635000,
0.759470,-0.660970,
0.752200,-0.684980,
0.740650,-0.706580,
0.725290,-0.725290,
0.706570,-0.740650,
0.684980,-0.752200,
0.660970,-0.759470,
0.635000,-0.762000,
-0.635000,-0.762000,
-0.660970,-0.759470,
-0.684980,-0.752200,
-0.706570,-0.740650,
-0.725290,-0.725290,
-0.740650,-0.706580,
-0.752200,-0.684980,
-0.759470,-0.660970,
-0.762000,-0.635000,
-0.762000,0.635000,
-0.759470,0.660970,
-0.752200,0.684980,
-0.740650,0.706580,
-0.725290,0.725290,
-0.706570,0.740650,
-0.684980,0.752200,
-0.660970,0.759470,
-0.635000,0.762000,
0.635000,0.762000,
0.660970,0.759470,
0.684980,0.752200,
0.706570,0.740650,
0.725290,0.725290,
0.740650,0.706580,
0.752200,0.684980,
0.759470,0.660970,
0.762000,0.635000,
0*%
%TA.AperFunction,Material*%
%ADD71PPAD011*%
%ADD20C,1.524000*%
%TA.AperFunction,Material*%
%ADD21C,3.302000*%
%TA.AperFunction,Profile*%
%ADD17C,0.203200*%
%TD.AperFunction*%
D19*
X-749620Y+3750000D03*
X+1250380Y+1234000D03*
X+15620Y-3734000D03*
X-2500380Y-1250000D03*
D70*
X-7000000Y+6627000D03*
X-6873000Y+6500000D03*
X-7000000Y+6373000D03*
X-7000000Y+5877000D03*
X-6873000Y+5750000D03*
X-7000000Y+5623000D03*
X-7000000Y+4877000D03*
X-6873000Y+4750000D03*
X-7000000Y+4623000D03*
X-7000000Y+4127000D03*
X-6873000Y+4000000D03*
X-7000000Y+3873000D03*
X-7000000Y+3127000D03*
X-6873000Y+3000000D03*
X-7000000Y+2873000D03*
X-7000000Y+2377000D03*
X-6873000Y+2250000D03*
X-7000000Y+2123000D03*
X-7000000Y+1377000D03*
X-6873000Y+1250000D03*
X-7000000Y+1123000D03*
X-7000000Y+627000D03*
X-6873000Y+500000D03*
X-7000000Y+373000D03*
X-7000000Y-373000D03*
X-6873000Y-500000D03*
X-7000000Y-627000D03*
X-7000000Y-1123000D03*
X-6873000Y-1250000D03*
X-7000000Y-1377000D03*
X-7000000Y-2123000D03*
X-6873000Y-2250000D03*
X-7000000Y-2377000D03*
X-7000000Y-2873000D03*
X-6873000Y-3000000D03*
X-7000000Y-3127000D03*
X-7000000Y-3873000D03*
X-6873000Y-4000000D03*
X-7000000Y-4127000D03*
X-7000000Y-4623000D03*
X-6873000Y-4750000D03*
X-7000000Y-4877000D03*
X-7000000Y-5623000D03*
X-6873000Y-5750000D03*
X-7000000Y-5877000D03*
X-7000000Y-6373000D03*
X-6873000Y-6500000D03*
X-7000000Y-6627000D03*
D71*
X-3250000Y+4750000D03*
D20*
X-3250000Y+4496000D03*
X-3250000Y+4242000D03*
X-3250000Y+3988000D03*
X-3250000Y+3734000D03*
X-3250000Y+3480000D03*
X-3250000Y+3226000D03*
X-3250000Y+2972000D03*
X-2488000Y+2972000D03*
X-2488000Y+3226000D03*
X-2488000Y+3480000D03*
X-2488000Y+3734000D03*
X-2488000Y+3988000D03*
X-2488000Y+4242000D03*
X-2488000Y+4496000D03*
X-2488000Y+4750000D03*
D71*
X-3250000Y+2250000D03*
D20*
X-3250000Y+1996000D03*
X-3250000Y+1742000D03*
X-3250000Y+1488000D03*
X-3250000Y+1234000D03*
X-3250000Y+980000D03*
X-3250000Y+726000D03*
X-3250000Y+472000D03*
X-2488000Y+472000D03*
X-2488000Y+726000D03*
X-2488000Y+980000D03*
X-2488000Y+1234000D03*
X-2488000Y+1488000D03*
X-2488000Y+1742000D03*
X-2488000Y+1996000D03*
X-2488000Y+2250000D03*
D21*
X-2250000Y+6500000D03*
X-1749620Y+6500000D03*
X-1250000Y+6500000D03*
X-749620Y+6500000D03*
X-250000Y+6500000D03*
X+250380Y+6500000D03*
X+750000Y+6500000D03*
X+1250380Y+6500000D03*
D71*
X+2250000Y-4750000D03*
D20*
X+2250000Y-4496000D03*
X+2250000Y-4242000D03*
X+2250000Y-3988000D03*
X+2250000Y-3734000D03*
X+2250000Y-3480000D03*
X+2250000Y-3226000D03*
X+2250000Y-2972000D03*
X+1488000Y-2972000D03*
X+1488000Y-3226000D03*
X+1488000Y-3480000D03*
X+1488000Y-3734000D03*
X+1488000Y-3988000D03*
X+1488000Y-4242000D03*
X+1488000Y-4496000D03*
X+1488000Y-4750000D03*
D71*
X+2250000Y-2250000D03*
D20*
X+2250000Y-1996000D03*
X+2250000Y-1742000D03*
X+2250000Y-1488000D03*
X+2250000Y-1234000D03*
X+2250000Y-980000D03*
X+2250000Y-726000D03*
X+2250000Y-472000D03*
X+1488000Y-472000D03*
X+1488000Y-726000D03*
X+1488000Y-980000D03*
X+1488000Y-1234000D03*
X+1488000Y-1488000D03*
X+1488000Y-1742000D03*
X+1488000Y-1996000D03*
X+1488000Y-2250000D03*
D70*
X+6250000Y-6627000D03*
X+6123000Y-6500000D03*
X+6250000Y-6373000D03*
X+6250000Y-5877000D03*
X+6123000Y-5750000D03*
X+6250000Y-5623000D03*
X+6250000Y-4877000D03*
X+6123000Y-4750000D03*
X+6250000Y-4623000D03*
X+6250000Y-4127000D03*
X+6123000Y-4000000D03*
X+6250000Y-3873000D03*
X+6250000Y-3127000D03*
X+6123000Y-3000000D03*
X+6250000Y-2873000D03*
X+6250000Y-2377000D03*
X+6123000Y-2250000D03*
X+6250000Y-2123000D03*
X+6250000Y-1377000D03*
X+6123000Y-1250000D03*
X+6250000Y-1123000D03*
X+6250000Y-627000D03*
X+6123000Y-500000D03*
X+6250000Y-373000D03*
X+6250000Y+373000D03*
X+6123000Y+500000D03*
X+6250000Y+627000D03*
X+6250000Y+1123000D03*
X+6123000Y+1250000D03*
X+6250000Y+1377000D03*
X+6250000Y+2123000D03*
X+6123000Y+2250000D03*
X+6250000Y+2377000D03*
X+6250000Y+2873000D03*
X+6123000Y+3000000D03*
X+6250000Y+3127000D03*
X+6250000Y+3873000D03*
X+6123000Y+4000000D03*
X+6250000Y+4127000D03*
X+6250000Y+4623000D03*
X+6123000Y+4750000D03*
X+6250000Y+4877000D03*
X+6250000Y+5623000D03*
X+6123000Y+5750000D03*
X+6250000Y+5877000D03*
X+6250000Y+6373000D03*
X+6123000Y+6500000D03*
X+6250000Y+6627000D03*
D21*
X+1250380Y-6500000D03*
X+750000Y-6500000D03*
X+250000Y-6500000D03*
X-250380Y-6500000D03*
X-1250000Y-6500000D03*
X-1750380Y-6500000D03*
X-2250000Y-6500000D03*
X-2750380Y-6500000D03*
D17*
X-8000000Y-7250000D02*
X+7000000Y-7250000D01*
X+7000000Y+7250000D01*
X-8000000Y+7250000D01*
X-8000000Y-7250000D01*
M02*
