G04 PROTEUS GERBER X2 FILE*
%TF.GenerationSoftware,Labcenter,Proteus,8.13-SP0-Build31525*%
%TF.CreationDate,2024-05-03T02:55:58+00:00*%
%TF.FileFunction,Legend,Top*%
%TF.FilePolarity,Positive*%
%TF.Part,Single*%
%TF.SameCoordinates,{cc6bef05-7bf9-4bf0-b406-8ddb23bdf16b}*%
%FSLAX45Y45*%
%MOMM*%
G01*
%TA.AperFunction,Material*%
%ADD18C,0.203200*%
%TA.AperFunction,Profile*%
%ADD17C,0.203200*%
%TD.AperFunction*%
D18*
X-7127000Y+6690500D02*
X-7127000Y+6309500D01*
X-7000000Y+6741300D02*
X-7023688Y+6739117D01*
X-7046633Y+6733362D01*
X-7087312Y+6715900D01*
X-7127000Y+6690500D01*
X-7000000Y+6741300D02*
X-6948065Y+6740438D01*
X-6900037Y+6729046D01*
X-6856846Y+6708204D01*
X-6819422Y+6678991D01*
X-6788695Y+6642484D01*
X-6765596Y+6599764D01*
X-6751054Y+6551910D01*
X-6746000Y+6500000D01*
X-7000000Y+6258700D02*
X-7023688Y+6260883D01*
X-7046633Y+6266638D01*
X-7087312Y+6284100D01*
X-7127000Y+6309500D01*
X-7000000Y+6258700D02*
X-6948065Y+6259562D01*
X-6900037Y+6270954D01*
X-6856846Y+6291796D01*
X-6819422Y+6321009D01*
X-6788695Y+6357516D01*
X-6765596Y+6400236D01*
X-6751054Y+6448090D01*
X-6746000Y+6500000D01*
X-7127000Y+5940500D02*
X-7127000Y+5559500D01*
X-7000000Y+5991300D02*
X-7023688Y+5989117D01*
X-7046633Y+5983362D01*
X-7087312Y+5965900D01*
X-7127000Y+5940500D01*
X-7000000Y+5991300D02*
X-6948065Y+5990438D01*
X-6900037Y+5979046D01*
X-6856846Y+5958204D01*
X-6819422Y+5928991D01*
X-6788695Y+5892484D01*
X-6765596Y+5849764D01*
X-6751054Y+5801910D01*
X-6746000Y+5750000D01*
X-7000000Y+5508700D02*
X-7023688Y+5510883D01*
X-7046633Y+5516638D01*
X-7087312Y+5534100D01*
X-7127000Y+5559500D01*
X-7000000Y+5508700D02*
X-6948065Y+5509562D01*
X-6900037Y+5520954D01*
X-6856846Y+5541796D01*
X-6819422Y+5571009D01*
X-6788695Y+5607516D01*
X-6765596Y+5650236D01*
X-6751054Y+5698090D01*
X-6746000Y+5750000D01*
X-7127000Y+4940500D02*
X-7127000Y+4559500D01*
X-7000000Y+4991300D02*
X-7023688Y+4989117D01*
X-7046633Y+4983362D01*
X-7087312Y+4965900D01*
X-7127000Y+4940500D01*
X-7000000Y+4991300D02*
X-6948065Y+4990438D01*
X-6900037Y+4979046D01*
X-6856846Y+4958204D01*
X-6819422Y+4928991D01*
X-6788695Y+4892484D01*
X-6765596Y+4849764D01*
X-6751054Y+4801910D01*
X-6746000Y+4750000D01*
X-7000000Y+4508700D02*
X-7023688Y+4510883D01*
X-7046633Y+4516638D01*
X-7087312Y+4534100D01*
X-7127000Y+4559500D01*
X-7000000Y+4508700D02*
X-6948065Y+4509562D01*
X-6900037Y+4520954D01*
X-6856846Y+4541796D01*
X-6819422Y+4571009D01*
X-6788695Y+4607516D01*
X-6765596Y+4650236D01*
X-6751054Y+4698090D01*
X-6746000Y+4750000D01*
X-7127000Y+4190500D02*
X-7127000Y+3809500D01*
X-7000000Y+4241300D02*
X-7023688Y+4239117D01*
X-7046633Y+4233362D01*
X-7087312Y+4215900D01*
X-7127000Y+4190500D01*
X-7000000Y+4241300D02*
X-6948065Y+4240438D01*
X-6900037Y+4229046D01*
X-6856846Y+4208204D01*
X-6819422Y+4178991D01*
X-6788695Y+4142484D01*
X-6765596Y+4099764D01*
X-6751054Y+4051910D01*
X-6746000Y+4000000D01*
X-7000000Y+3758700D02*
X-7023688Y+3760883D01*
X-7046633Y+3766638D01*
X-7087312Y+3784100D01*
X-7127000Y+3809500D01*
X-7000000Y+3758700D02*
X-6948065Y+3759562D01*
X-6900037Y+3770954D01*
X-6856846Y+3791796D01*
X-6819422Y+3821009D01*
X-6788695Y+3857516D01*
X-6765596Y+3900236D01*
X-6751054Y+3948090D01*
X-6746000Y+4000000D01*
X-7127000Y+3190500D02*
X-7127000Y+2809500D01*
X-7000000Y+3241300D02*
X-7023688Y+3239117D01*
X-7046633Y+3233362D01*
X-7087312Y+3215900D01*
X-7127000Y+3190500D01*
X-7000000Y+3241300D02*
X-6948065Y+3240438D01*
X-6900037Y+3229046D01*
X-6856846Y+3208204D01*
X-6819422Y+3178991D01*
X-6788695Y+3142484D01*
X-6765596Y+3099764D01*
X-6751054Y+3051910D01*
X-6746000Y+3000000D01*
X-7000000Y+2758700D02*
X-7023688Y+2760883D01*
X-7046633Y+2766638D01*
X-7087312Y+2784100D01*
X-7127000Y+2809500D01*
X-7000000Y+2758700D02*
X-6948065Y+2759562D01*
X-6900037Y+2770954D01*
X-6856846Y+2791796D01*
X-6819422Y+2821009D01*
X-6788695Y+2857516D01*
X-6765596Y+2900236D01*
X-6751054Y+2948090D01*
X-6746000Y+3000000D01*
X-7127000Y+2440500D02*
X-7127000Y+2059500D01*
X-7000000Y+2491300D02*
X-7023688Y+2489117D01*
X-7046633Y+2483362D01*
X-7087312Y+2465900D01*
X-7127000Y+2440500D01*
X-7000000Y+2491300D02*
X-6948065Y+2490438D01*
X-6900037Y+2479046D01*
X-6856846Y+2458204D01*
X-6819422Y+2428991D01*
X-6788695Y+2392484D01*
X-6765596Y+2349764D01*
X-6751054Y+2301910D01*
X-6746000Y+2250000D01*
X-7000000Y+2008700D02*
X-7023688Y+2010883D01*
X-7046633Y+2016638D01*
X-7087312Y+2034100D01*
X-7127000Y+2059500D01*
X-7000000Y+2008700D02*
X-6948065Y+2009562D01*
X-6900037Y+2020954D01*
X-6856846Y+2041796D01*
X-6819422Y+2071009D01*
X-6788695Y+2107516D01*
X-6765596Y+2150236D01*
X-6751054Y+2198090D01*
X-6746000Y+2250000D01*
X-7127000Y+1440500D02*
X-7127000Y+1059500D01*
X-7000000Y+1491300D02*
X-7023688Y+1489117D01*
X-7046633Y+1483362D01*
X-7087312Y+1465900D01*
X-7127000Y+1440500D01*
X-7000000Y+1491300D02*
X-6948065Y+1490438D01*
X-6900037Y+1479046D01*
X-6856846Y+1458204D01*
X-6819422Y+1428991D01*
X-6788695Y+1392484D01*
X-6765596Y+1349764D01*
X-6751054Y+1301910D01*
X-6746000Y+1250000D01*
X-7000000Y+1008700D02*
X-7023688Y+1010883D01*
X-7046633Y+1016638D01*
X-7087312Y+1034100D01*
X-7127000Y+1059500D01*
X-7000000Y+1008700D02*
X-6948065Y+1009562D01*
X-6900037Y+1020954D01*
X-6856846Y+1041796D01*
X-6819422Y+1071009D01*
X-6788695Y+1107516D01*
X-6765596Y+1150236D01*
X-6751054Y+1198090D01*
X-6746000Y+1250000D01*
X-7127000Y+690500D02*
X-7127000Y+309500D01*
X-7000000Y+741300D02*
X-7023688Y+739117D01*
X-7046633Y+733362D01*
X-7087312Y+715900D01*
X-7127000Y+690500D01*
X-7000000Y+741300D02*
X-6948065Y+740438D01*
X-6900037Y+729046D01*
X-6856846Y+708204D01*
X-6819422Y+678991D01*
X-6788695Y+642484D01*
X-6765596Y+599764D01*
X-6751054Y+551910D01*
X-6746000Y+500000D01*
X-7000000Y+258700D02*
X-7023688Y+260883D01*
X-7046633Y+266638D01*
X-7087312Y+284100D01*
X-7127000Y+309500D01*
X-7000000Y+258700D02*
X-6948065Y+259562D01*
X-6900037Y+270954D01*
X-6856846Y+291796D01*
X-6819422Y+321009D01*
X-6788695Y+357516D01*
X-6765596Y+400236D01*
X-6751054Y+448090D01*
X-6746000Y+500000D01*
X-7127000Y-309500D02*
X-7127000Y-690500D01*
X-7000000Y-258700D02*
X-7023688Y-260883D01*
X-7046633Y-266638D01*
X-7087312Y-284100D01*
X-7127000Y-309500D01*
X-7000000Y-258700D02*
X-6948065Y-259562D01*
X-6900037Y-270954D01*
X-6856846Y-291796D01*
X-6819422Y-321009D01*
X-6788695Y-357516D01*
X-6765596Y-400236D01*
X-6751054Y-448090D01*
X-6746000Y-500000D01*
X-7000000Y-741300D02*
X-7023688Y-739117D01*
X-7046633Y-733362D01*
X-7087312Y-715900D01*
X-7127000Y-690500D01*
X-7000000Y-741300D02*
X-6948065Y-740438D01*
X-6900037Y-729046D01*
X-6856846Y-708204D01*
X-6819422Y-678991D01*
X-6788695Y-642484D01*
X-6765596Y-599764D01*
X-6751054Y-551910D01*
X-6746000Y-500000D01*
X-7127000Y-1059500D02*
X-7127000Y-1440500D01*
X-7000000Y-1008700D02*
X-7023688Y-1010883D01*
X-7046633Y-1016638D01*
X-7087312Y-1034100D01*
X-7127000Y-1059500D01*
X-7000000Y-1008700D02*
X-6948065Y-1009562D01*
X-6900037Y-1020954D01*
X-6856846Y-1041796D01*
X-6819422Y-1071009D01*
X-6788695Y-1107516D01*
X-6765596Y-1150236D01*
X-6751054Y-1198090D01*
X-6746000Y-1250000D01*
X-7000000Y-1491300D02*
X-7023688Y-1489117D01*
X-7046633Y-1483362D01*
X-7087312Y-1465900D01*
X-7127000Y-1440500D01*
X-7000000Y-1491300D02*
X-6948065Y-1490438D01*
X-6900037Y-1479046D01*
X-6856846Y-1458204D01*
X-6819422Y-1428991D01*
X-6788695Y-1392484D01*
X-6765596Y-1349764D01*
X-6751054Y-1301910D01*
X-6746000Y-1250000D01*
X-7127000Y-2059500D02*
X-7127000Y-2440500D01*
X-7000000Y-2008700D02*
X-7023688Y-2010883D01*
X-7046633Y-2016638D01*
X-7087312Y-2034100D01*
X-7127000Y-2059500D01*
X-7000000Y-2008700D02*
X-6948065Y-2009562D01*
X-6900037Y-2020954D01*
X-6856846Y-2041796D01*
X-6819422Y-2071009D01*
X-6788695Y-2107516D01*
X-6765596Y-2150236D01*
X-6751054Y-2198090D01*
X-6746000Y-2250000D01*
X-7000000Y-2491300D02*
X-7023688Y-2489117D01*
X-7046633Y-2483362D01*
X-7087312Y-2465900D01*
X-7127000Y-2440500D01*
X-7000000Y-2491300D02*
X-6948065Y-2490438D01*
X-6900037Y-2479046D01*
X-6856846Y-2458204D01*
X-6819422Y-2428991D01*
X-6788695Y-2392484D01*
X-6765596Y-2349764D01*
X-6751054Y-2301910D01*
X-6746000Y-2250000D01*
X-7127000Y-2809500D02*
X-7127000Y-3190500D01*
X-7000000Y-2758700D02*
X-7023688Y-2760883D01*
X-7046633Y-2766638D01*
X-7087312Y-2784100D01*
X-7127000Y-2809500D01*
X-7000000Y-2758700D02*
X-6948065Y-2759562D01*
X-6900037Y-2770954D01*
X-6856846Y-2791796D01*
X-6819422Y-2821009D01*
X-6788695Y-2857516D01*
X-6765596Y-2900236D01*
X-6751054Y-2948090D01*
X-6746000Y-3000000D01*
X-7000000Y-3241300D02*
X-7023688Y-3239117D01*
X-7046633Y-3233362D01*
X-7087312Y-3215900D01*
X-7127000Y-3190500D01*
X-7000000Y-3241300D02*
X-6948065Y-3240438D01*
X-6900037Y-3229046D01*
X-6856846Y-3208204D01*
X-6819422Y-3178991D01*
X-6788695Y-3142484D01*
X-6765596Y-3099764D01*
X-6751054Y-3051910D01*
X-6746000Y-3000000D01*
X-7127000Y-3809500D02*
X-7127000Y-4190500D01*
X-7000000Y-3758700D02*
X-7023688Y-3760883D01*
X-7046633Y-3766638D01*
X-7087312Y-3784100D01*
X-7127000Y-3809500D01*
X-7000000Y-3758700D02*
X-6948065Y-3759562D01*
X-6900037Y-3770954D01*
X-6856846Y-3791796D01*
X-6819422Y-3821009D01*
X-6788695Y-3857516D01*
X-6765596Y-3900236D01*
X-6751054Y-3948090D01*
X-6746000Y-4000000D01*
X-7000000Y-4241300D02*
X-7023688Y-4239117D01*
X-7046633Y-4233362D01*
X-7087312Y-4215900D01*
X-7127000Y-4190500D01*
X-7000000Y-4241300D02*
X-6948065Y-4240438D01*
X-6900037Y-4229046D01*
X-6856846Y-4208204D01*
X-6819422Y-4178991D01*
X-6788695Y-4142484D01*
X-6765596Y-4099764D01*
X-6751054Y-4051910D01*
X-6746000Y-4000000D01*
X-7127000Y-4559500D02*
X-7127000Y-4940500D01*
X-7000000Y-4508700D02*
X-7023688Y-4510883D01*
X-7046633Y-4516638D01*
X-7087312Y-4534100D01*
X-7127000Y-4559500D01*
X-7000000Y-4508700D02*
X-6948065Y-4509562D01*
X-6900037Y-4520954D01*
X-6856846Y-4541796D01*
X-6819422Y-4571009D01*
X-6788695Y-4607516D01*
X-6765596Y-4650236D01*
X-6751054Y-4698090D01*
X-6746000Y-4750000D01*
X-7000000Y-4991300D02*
X-7023688Y-4989117D01*
X-7046633Y-4983362D01*
X-7087312Y-4965900D01*
X-7127000Y-4940500D01*
X-7000000Y-4991300D02*
X-6948065Y-4990438D01*
X-6900037Y-4979046D01*
X-6856846Y-4958204D01*
X-6819422Y-4928991D01*
X-6788695Y-4892484D01*
X-6765596Y-4849764D01*
X-6751054Y-4801910D01*
X-6746000Y-4750000D01*
X-7127000Y-5559500D02*
X-7127000Y-5940500D01*
X-7000000Y-5508700D02*
X-7023688Y-5510883D01*
X-7046633Y-5516638D01*
X-7087312Y-5534100D01*
X-7127000Y-5559500D01*
X-7000000Y-5508700D02*
X-6948065Y-5509562D01*
X-6900037Y-5520954D01*
X-6856846Y-5541796D01*
X-6819422Y-5571009D01*
X-6788695Y-5607516D01*
X-6765596Y-5650236D01*
X-6751054Y-5698090D01*
X-6746000Y-5750000D01*
X-7000000Y-5991300D02*
X-7023688Y-5989117D01*
X-7046633Y-5983362D01*
X-7087312Y-5965900D01*
X-7127000Y-5940500D01*
X-7000000Y-5991300D02*
X-6948065Y-5990438D01*
X-6900037Y-5979046D01*
X-6856846Y-5958204D01*
X-6819422Y-5928991D01*
X-6788695Y-5892484D01*
X-6765596Y-5849764D01*
X-6751054Y-5801910D01*
X-6746000Y-5750000D01*
X-7127000Y-6309500D02*
X-7127000Y-6690500D01*
X-7000000Y-6258700D02*
X-7023688Y-6260883D01*
X-7046633Y-6266638D01*
X-7087312Y-6284100D01*
X-7127000Y-6309500D01*
X-7000000Y-6258700D02*
X-6948065Y-6259562D01*
X-6900037Y-6270954D01*
X-6856846Y-6291796D01*
X-6819422Y-6321009D01*
X-6788695Y-6357516D01*
X-6765596Y-6400236D01*
X-6751054Y-6448090D01*
X-6746000Y-6500000D01*
X-7000000Y-6741300D02*
X-7023688Y-6739117D01*
X-7046633Y-6733362D01*
X-7087312Y-6715900D01*
X-7127000Y-6690500D01*
X-7000000Y-6741300D02*
X-6948065Y-6740438D01*
X-6900037Y-6729046D01*
X-6856846Y-6708204D01*
X-6819422Y-6678991D01*
X-6788695Y-6642484D01*
X-6765596Y-6599764D01*
X-6751054Y-6551910D01*
X-6746000Y-6500000D01*
X-3123000Y+4877000D02*
X-2996000Y+4877000D01*
X-2869000Y+4750000D02*
X-2843124Y+4752436D01*
X-2819152Y+4759485D01*
X-2797562Y+4770762D01*
X-2778830Y+4785878D01*
X-2763431Y+4804446D01*
X-2751842Y+4826081D01*
X-2744540Y+4850394D01*
X-2742000Y+4877000D01*
X-2869000Y+4750000D02*
X-2895606Y+4752436D01*
X-2919919Y+4759485D01*
X-2941554Y+4770762D01*
X-2960122Y+4785878D01*
X-2975238Y+4804446D01*
X-2986515Y+4826081D01*
X-2993564Y+4850394D01*
X-2996000Y+4877000D01*
X-2742000Y+4877000D02*
X-2615000Y+4877000D01*
X-3123000Y+2845000D02*
X-2615000Y+2845000D01*
X-3123000Y+4877000D02*
X-3123000Y+2845000D01*
X-2615000Y+2845000D02*
X-2615000Y+4877000D01*
X-3123000Y+2377000D02*
X-2996000Y+2377000D01*
X-2869000Y+2250000D02*
X-2843124Y+2252436D01*
X-2819152Y+2259485D01*
X-2797562Y+2270762D01*
X-2778830Y+2285878D01*
X-2763431Y+2304446D01*
X-2751842Y+2326081D01*
X-2744540Y+2350394D01*
X-2742000Y+2377000D01*
X-2869000Y+2250000D02*
X-2895606Y+2252436D01*
X-2919919Y+2259485D01*
X-2941554Y+2270762D01*
X-2960122Y+2285878D01*
X-2975238Y+2304446D01*
X-2986515Y+2326081D01*
X-2993564Y+2350394D01*
X-2996000Y+2377000D01*
X-2742000Y+2377000D02*
X-2615000Y+2377000D01*
X-3123000Y+345000D02*
X-2615000Y+345000D01*
X-3123000Y+2377000D02*
X-3123000Y+345000D01*
X-2615000Y+345000D02*
X-2615000Y+2377000D01*
X-2504000Y+6119000D02*
X-2504000Y+6881000D01*
X-1488000Y+6881000D02*
X-1488000Y+6119000D01*
X-2504000Y+6119000D02*
X-1488000Y+6119000D01*
X-2504000Y+6881000D02*
X-1488000Y+6881000D01*
X-1504000Y+6119000D02*
X-1504000Y+6881000D01*
X-488000Y+6881000D02*
X-488000Y+6119000D01*
X-1504000Y+6119000D02*
X-488000Y+6119000D01*
X-1504000Y+6881000D02*
X-488000Y+6881000D01*
X-504000Y+6119000D02*
X-504000Y+6881000D01*
X+512000Y+6881000D02*
X+512000Y+6119000D01*
X-504000Y+6119000D02*
X+512000Y+6119000D01*
X-504000Y+6881000D02*
X+512000Y+6881000D01*
X+496000Y+6119000D02*
X+496000Y+6881000D01*
X+1512000Y+6881000D02*
X+1512000Y+6119000D01*
X+496000Y+6119000D02*
X+1512000Y+6119000D01*
X+496000Y+6881000D02*
X+1512000Y+6881000D01*
X+2123000Y-4877000D02*
X+1996000Y-4877000D01*
X+1869000Y-4750000D02*
X+1843124Y-4752436D01*
X+1819152Y-4759485D01*
X+1797562Y-4770762D01*
X+1778830Y-4785878D01*
X+1763431Y-4804446D01*
X+1751842Y-4826081D01*
X+1744540Y-4850394D01*
X+1742000Y-4877000D01*
X+1869000Y-4750000D02*
X+1895606Y-4752436D01*
X+1919919Y-4759485D01*
X+1941554Y-4770762D01*
X+1960122Y-4785878D01*
X+1975238Y-4804446D01*
X+1986515Y-4826081D01*
X+1993564Y-4850394D01*
X+1996000Y-4877000D01*
X+1742000Y-4877000D02*
X+1615000Y-4877000D01*
X+2123000Y-2845000D02*
X+1615000Y-2845000D01*
X+2123000Y-4877000D02*
X+2123000Y-2845000D01*
X+1615000Y-2845000D02*
X+1615000Y-4877000D01*
X+2123000Y-2377000D02*
X+1996000Y-2377000D01*
X+1869000Y-2250000D02*
X+1843124Y-2252436D01*
X+1819152Y-2259485D01*
X+1797562Y-2270762D01*
X+1778830Y-2285878D01*
X+1763431Y-2304446D01*
X+1751842Y-2326081D01*
X+1744540Y-2350394D01*
X+1742000Y-2377000D01*
X+1869000Y-2250000D02*
X+1895606Y-2252436D01*
X+1919919Y-2259485D01*
X+1941554Y-2270762D01*
X+1960122Y-2285878D01*
X+1975238Y-2304446D01*
X+1986515Y-2326081D01*
X+1993564Y-2350394D01*
X+1996000Y-2377000D01*
X+1742000Y-2377000D02*
X+1615000Y-2377000D01*
X+2123000Y-345000D02*
X+1615000Y-345000D01*
X+2123000Y-2377000D02*
X+2123000Y-345000D01*
X+1615000Y-345000D02*
X+1615000Y-2377000D01*
X+6377000Y-6690500D02*
X+6377000Y-6309500D01*
X+6250000Y-6741300D02*
X+6273688Y-6739117D01*
X+6296633Y-6733362D01*
X+6337312Y-6715900D01*
X+6377000Y-6690500D01*
X+6250000Y-6741300D02*
X+6198065Y-6740438D01*
X+6150037Y-6729046D01*
X+6106846Y-6708204D01*
X+6069422Y-6678991D01*
X+6038695Y-6642484D01*
X+6015596Y-6599764D01*
X+6001054Y-6551910D01*
X+5996000Y-6500000D01*
X+6250000Y-6258700D02*
X+6273688Y-6260883D01*
X+6296633Y-6266638D01*
X+6337312Y-6284100D01*
X+6377000Y-6309500D01*
X+6250000Y-6258700D02*
X+6198065Y-6259562D01*
X+6150037Y-6270954D01*
X+6106846Y-6291796D01*
X+6069422Y-6321009D01*
X+6038695Y-6357516D01*
X+6015596Y-6400236D01*
X+6001054Y-6448090D01*
X+5996000Y-6500000D01*
X+6377000Y-5940500D02*
X+6377000Y-5559500D01*
X+6250000Y-5991300D02*
X+6273688Y-5989117D01*
X+6296633Y-5983362D01*
X+6337312Y-5965900D01*
X+6377000Y-5940500D01*
X+6250000Y-5991300D02*
X+6198065Y-5990438D01*
X+6150037Y-5979046D01*
X+6106846Y-5958204D01*
X+6069422Y-5928991D01*
X+6038695Y-5892484D01*
X+6015596Y-5849764D01*
X+6001054Y-5801910D01*
X+5996000Y-5750000D01*
X+6250000Y-5508700D02*
X+6273688Y-5510883D01*
X+6296633Y-5516638D01*
X+6337312Y-5534100D01*
X+6377000Y-5559500D01*
X+6250000Y-5508700D02*
X+6198065Y-5509562D01*
X+6150037Y-5520954D01*
X+6106846Y-5541796D01*
X+6069422Y-5571009D01*
X+6038695Y-5607516D01*
X+6015596Y-5650236D01*
X+6001054Y-5698090D01*
X+5996000Y-5750000D01*
X+6377000Y-4940500D02*
X+6377000Y-4559500D01*
X+6250000Y-4991300D02*
X+6273688Y-4989117D01*
X+6296633Y-4983362D01*
X+6337312Y-4965900D01*
X+6377000Y-4940500D01*
X+6250000Y-4991300D02*
X+6198065Y-4990438D01*
X+6150037Y-4979046D01*
X+6106846Y-4958204D01*
X+6069422Y-4928991D01*
X+6038695Y-4892484D01*
X+6015596Y-4849764D01*
X+6001054Y-4801910D01*
X+5996000Y-4750000D01*
X+6250000Y-4508700D02*
X+6273688Y-4510883D01*
X+6296633Y-4516638D01*
X+6337312Y-4534100D01*
X+6377000Y-4559500D01*
X+6250000Y-4508700D02*
X+6198065Y-4509562D01*
X+6150037Y-4520954D01*
X+6106846Y-4541796D01*
X+6069422Y-4571009D01*
X+6038695Y-4607516D01*
X+6015596Y-4650236D01*
X+6001054Y-4698090D01*
X+5996000Y-4750000D01*
X+6377000Y-4190500D02*
X+6377000Y-3809500D01*
X+6250000Y-4241300D02*
X+6273688Y-4239117D01*
X+6296633Y-4233362D01*
X+6337312Y-4215900D01*
X+6377000Y-4190500D01*
X+6250000Y-4241300D02*
X+6198065Y-4240438D01*
X+6150037Y-4229046D01*
X+6106846Y-4208204D01*
X+6069422Y-4178991D01*
X+6038695Y-4142484D01*
X+6015596Y-4099764D01*
X+6001054Y-4051910D01*
X+5996000Y-4000000D01*
X+6250000Y-3758700D02*
X+6273688Y-3760883D01*
X+6296633Y-3766638D01*
X+6337312Y-3784100D01*
X+6377000Y-3809500D01*
X+6250000Y-3758700D02*
X+6198065Y-3759562D01*
X+6150037Y-3770954D01*
X+6106846Y-3791796D01*
X+6069422Y-3821009D01*
X+6038695Y-3857516D01*
X+6015596Y-3900236D01*
X+6001054Y-3948090D01*
X+5996000Y-4000000D01*
X+6377000Y-3190500D02*
X+6377000Y-2809500D01*
X+6250000Y-3241300D02*
X+6273688Y-3239117D01*
X+6296633Y-3233362D01*
X+6337312Y-3215900D01*
X+6377000Y-3190500D01*
X+6250000Y-3241300D02*
X+6198065Y-3240438D01*
X+6150037Y-3229046D01*
X+6106846Y-3208204D01*
X+6069422Y-3178991D01*
X+6038695Y-3142484D01*
X+6015596Y-3099764D01*
X+6001054Y-3051910D01*
X+5996000Y-3000000D01*
X+6250000Y-2758700D02*
X+6273688Y-2760883D01*
X+6296633Y-2766638D01*
X+6337312Y-2784100D01*
X+6377000Y-2809500D01*
X+6250000Y-2758700D02*
X+6198065Y-2759562D01*
X+6150037Y-2770954D01*
X+6106846Y-2791796D01*
X+6069422Y-2821009D01*
X+6038695Y-2857516D01*
X+6015596Y-2900236D01*
X+6001054Y-2948090D01*
X+5996000Y-3000000D01*
X+6377000Y-2440500D02*
X+6377000Y-2059500D01*
X+6250000Y-2491300D02*
X+6273688Y-2489117D01*
X+6296633Y-2483362D01*
X+6337312Y-2465900D01*
X+6377000Y-2440500D01*
X+6250000Y-2491300D02*
X+6198065Y-2490438D01*
X+6150037Y-2479046D01*
X+6106846Y-2458204D01*
X+6069422Y-2428991D01*
X+6038695Y-2392484D01*
X+6015596Y-2349764D01*
X+6001054Y-2301910D01*
X+5996000Y-2250000D01*
X+6250000Y-2008700D02*
X+6273688Y-2010883D01*
X+6296633Y-2016638D01*
X+6337312Y-2034100D01*
X+6377000Y-2059500D01*
X+6250000Y-2008700D02*
X+6198065Y-2009562D01*
X+6150037Y-2020954D01*
X+6106846Y-2041796D01*
X+6069422Y-2071009D01*
X+6038695Y-2107516D01*
X+6015596Y-2150236D01*
X+6001054Y-2198090D01*
X+5996000Y-2250000D01*
X+6377000Y-1440500D02*
X+6377000Y-1059500D01*
X+6250000Y-1491300D02*
X+6273688Y-1489117D01*
X+6296633Y-1483362D01*
X+6337312Y-1465900D01*
X+6377000Y-1440500D01*
X+6250000Y-1491300D02*
X+6198065Y-1490438D01*
X+6150037Y-1479046D01*
X+6106846Y-1458204D01*
X+6069422Y-1428991D01*
X+6038695Y-1392484D01*
X+6015596Y-1349764D01*
X+6001054Y-1301910D01*
X+5996000Y-1250000D01*
X+6250000Y-1008700D02*
X+6273688Y-1010883D01*
X+6296633Y-1016638D01*
X+6337312Y-1034100D01*
X+6377000Y-1059500D01*
X+6250000Y-1008700D02*
X+6198065Y-1009562D01*
X+6150037Y-1020954D01*
X+6106846Y-1041796D01*
X+6069422Y-1071009D01*
X+6038695Y-1107516D01*
X+6015596Y-1150236D01*
X+6001054Y-1198090D01*
X+5996000Y-1250000D01*
X+6377000Y-690500D02*
X+6377000Y-309500D01*
X+6250000Y-741300D02*
X+6273688Y-739117D01*
X+6296633Y-733362D01*
X+6337312Y-715900D01*
X+6377000Y-690500D01*
X+6250000Y-741300D02*
X+6198065Y-740438D01*
X+6150037Y-729046D01*
X+6106846Y-708204D01*
X+6069422Y-678991D01*
X+6038695Y-642484D01*
X+6015596Y-599764D01*
X+6001054Y-551910D01*
X+5996000Y-500000D01*
X+6250000Y-258700D02*
X+6273688Y-260883D01*
X+6296633Y-266638D01*
X+6337312Y-284100D01*
X+6377000Y-309500D01*
X+6250000Y-258700D02*
X+6198065Y-259562D01*
X+6150037Y-270954D01*
X+6106846Y-291796D01*
X+6069422Y-321009D01*
X+6038695Y-357516D01*
X+6015596Y-400236D01*
X+6001054Y-448090D01*
X+5996000Y-500000D01*
X+6377000Y+309500D02*
X+6377000Y+690500D01*
X+6250000Y+258700D02*
X+6273688Y+260883D01*
X+6296633Y+266638D01*
X+6337312Y+284100D01*
X+6377000Y+309500D01*
X+6250000Y+258700D02*
X+6198065Y+259562D01*
X+6150037Y+270954D01*
X+6106846Y+291796D01*
X+6069422Y+321009D01*
X+6038695Y+357516D01*
X+6015596Y+400236D01*
X+6001054Y+448090D01*
X+5996000Y+500000D01*
X+6250000Y+741300D02*
X+6273688Y+739117D01*
X+6296633Y+733362D01*
X+6337312Y+715900D01*
X+6377000Y+690500D01*
X+6250000Y+741300D02*
X+6198065Y+740438D01*
X+6150037Y+729046D01*
X+6106846Y+708204D01*
X+6069422Y+678991D01*
X+6038695Y+642484D01*
X+6015596Y+599764D01*
X+6001054Y+551910D01*
X+5996000Y+500000D01*
X+6377000Y+1059500D02*
X+6377000Y+1440500D01*
X+6250000Y+1008700D02*
X+6273688Y+1010883D01*
X+6296633Y+1016638D01*
X+6337312Y+1034100D01*
X+6377000Y+1059500D01*
X+6250000Y+1008700D02*
X+6198065Y+1009562D01*
X+6150037Y+1020954D01*
X+6106846Y+1041796D01*
X+6069422Y+1071009D01*
X+6038695Y+1107516D01*
X+6015596Y+1150236D01*
X+6001054Y+1198090D01*
X+5996000Y+1250000D01*
X+6250000Y+1491300D02*
X+6273688Y+1489117D01*
X+6296633Y+1483362D01*
X+6337312Y+1465900D01*
X+6377000Y+1440500D01*
X+6250000Y+1491300D02*
X+6198065Y+1490438D01*
X+6150037Y+1479046D01*
X+6106846Y+1458204D01*
X+6069422Y+1428991D01*
X+6038695Y+1392484D01*
X+6015596Y+1349764D01*
X+6001054Y+1301910D01*
X+5996000Y+1250000D01*
X+6377000Y+2059500D02*
X+6377000Y+2440500D01*
X+6250000Y+2008700D02*
X+6273688Y+2010883D01*
X+6296633Y+2016638D01*
X+6337312Y+2034100D01*
X+6377000Y+2059500D01*
X+6250000Y+2008700D02*
X+6198065Y+2009562D01*
X+6150037Y+2020954D01*
X+6106846Y+2041796D01*
X+6069422Y+2071009D01*
X+6038695Y+2107516D01*
X+6015596Y+2150236D01*
X+6001054Y+2198090D01*
X+5996000Y+2250000D01*
X+6250000Y+2491300D02*
X+6273688Y+2489117D01*
X+6296633Y+2483362D01*
X+6337312Y+2465900D01*
X+6377000Y+2440500D01*
X+6250000Y+2491300D02*
X+6198065Y+2490438D01*
X+6150037Y+2479046D01*
X+6106846Y+2458204D01*
X+6069422Y+2428991D01*
X+6038695Y+2392484D01*
X+6015596Y+2349764D01*
X+6001054Y+2301910D01*
X+5996000Y+2250000D01*
X+6377000Y+2809500D02*
X+6377000Y+3190500D01*
X+6250000Y+2758700D02*
X+6273688Y+2760883D01*
X+6296633Y+2766638D01*
X+6337312Y+2784100D01*
X+6377000Y+2809500D01*
X+6250000Y+2758700D02*
X+6198065Y+2759562D01*
X+6150037Y+2770954D01*
X+6106846Y+2791796D01*
X+6069422Y+2821009D01*
X+6038695Y+2857516D01*
X+6015596Y+2900236D01*
X+6001054Y+2948090D01*
X+5996000Y+3000000D01*
X+6250000Y+3241300D02*
X+6273688Y+3239117D01*
X+6296633Y+3233362D01*
X+6337312Y+3215900D01*
X+6377000Y+3190500D01*
X+6250000Y+3241300D02*
X+6198065Y+3240438D01*
X+6150037Y+3229046D01*
X+6106846Y+3208204D01*
X+6069422Y+3178991D01*
X+6038695Y+3142484D01*
X+6015596Y+3099764D01*
X+6001054Y+3051910D01*
X+5996000Y+3000000D01*
X+6377000Y+3809500D02*
X+6377000Y+4190500D01*
X+6250000Y+3758700D02*
X+6273688Y+3760883D01*
X+6296633Y+3766638D01*
X+6337312Y+3784100D01*
X+6377000Y+3809500D01*
X+6250000Y+3758700D02*
X+6198065Y+3759562D01*
X+6150037Y+3770954D01*
X+6106846Y+3791796D01*
X+6069422Y+3821009D01*
X+6038695Y+3857516D01*
X+6015596Y+3900236D01*
X+6001054Y+3948090D01*
X+5996000Y+4000000D01*
X+6250000Y+4241300D02*
X+6273688Y+4239117D01*
X+6296633Y+4233362D01*
X+6337312Y+4215900D01*
X+6377000Y+4190500D01*
X+6250000Y+4241300D02*
X+6198065Y+4240438D01*
X+6150037Y+4229046D01*
X+6106846Y+4208204D01*
X+6069422Y+4178991D01*
X+6038695Y+4142484D01*
X+6015596Y+4099764D01*
X+6001054Y+4051910D01*
X+5996000Y+4000000D01*
X+6377000Y+4559500D02*
X+6377000Y+4940500D01*
X+6250000Y+4508700D02*
X+6273688Y+4510883D01*
X+6296633Y+4516638D01*
X+6337312Y+4534100D01*
X+6377000Y+4559500D01*
X+6250000Y+4508700D02*
X+6198065Y+4509562D01*
X+6150037Y+4520954D01*
X+6106846Y+4541796D01*
X+6069422Y+4571009D01*
X+6038695Y+4607516D01*
X+6015596Y+4650236D01*
X+6001054Y+4698090D01*
X+5996000Y+4750000D01*
X+6250000Y+4991300D02*
X+6273688Y+4989117D01*
X+6296633Y+4983362D01*
X+6337312Y+4965900D01*
X+6377000Y+4940500D01*
X+6250000Y+4991300D02*
X+6198065Y+4990438D01*
X+6150037Y+4979046D01*
X+6106846Y+4958204D01*
X+6069422Y+4928991D01*
X+6038695Y+4892484D01*
X+6015596Y+4849764D01*
X+6001054Y+4801910D01*
X+5996000Y+4750000D01*
X+6377000Y+5559500D02*
X+6377000Y+5940500D01*
X+6250000Y+5508700D02*
X+6273688Y+5510883D01*
X+6296633Y+5516638D01*
X+6337312Y+5534100D01*
X+6377000Y+5559500D01*
X+6250000Y+5508700D02*
X+6198065Y+5509562D01*
X+6150037Y+5520954D01*
X+6106846Y+5541796D01*
X+6069422Y+5571009D01*
X+6038695Y+5607516D01*
X+6015596Y+5650236D01*
X+6001054Y+5698090D01*
X+5996000Y+5750000D01*
X+6250000Y+5991300D02*
X+6273688Y+5989117D01*
X+6296633Y+5983362D01*
X+6337312Y+5965900D01*
X+6377000Y+5940500D01*
X+6250000Y+5991300D02*
X+6198065Y+5990438D01*
X+6150037Y+5979046D01*
X+6106846Y+5958204D01*
X+6069422Y+5928991D01*
X+6038695Y+5892484D01*
X+6015596Y+5849764D01*
X+6001054Y+5801910D01*
X+5996000Y+5750000D01*
X+6377000Y+6309500D02*
X+6377000Y+6690500D01*
X+6250000Y+6258700D02*
X+6273688Y+6260883D01*
X+6296633Y+6266638D01*
X+6337312Y+6284100D01*
X+6377000Y+6309500D01*
X+6250000Y+6258700D02*
X+6198065Y+6259562D01*
X+6150037Y+6270954D01*
X+6106846Y+6291796D01*
X+6069422Y+6321009D01*
X+6038695Y+6357516D01*
X+6015596Y+6400236D01*
X+6001054Y+6448090D01*
X+5996000Y+6500000D01*
X+6250000Y+6741300D02*
X+6273688Y+6739117D01*
X+6296633Y+6733362D01*
X+6337312Y+6715900D01*
X+6377000Y+6690500D01*
X+6250000Y+6741300D02*
X+6198065Y+6740438D01*
X+6150037Y+6729046D01*
X+6106846Y+6708204D01*
X+6069422Y+6678991D01*
X+6038695Y+6642484D01*
X+6015596Y+6599764D01*
X+6001054Y+6551910D01*
X+5996000Y+6500000D01*
D17*
X-8000000Y-7250000D02*
X+7000000Y-7250000D01*
X+7000000Y+7250000D01*
X-8000000Y+7250000D01*
X-8000000Y-7250000D01*
D18*
X+1504380Y-6119000D02*
X+1504380Y-6881000D01*
X+488380Y-6881000D02*
X+488380Y-6119000D01*
X+1504380Y-6119000D02*
X+488380Y-6119000D01*
X+1504380Y-6881000D02*
X+488380Y-6881000D01*
X+504000Y-6119000D02*
X+504000Y-6881000D01*
X-512000Y-6881000D02*
X-512000Y-6119000D01*
X+504000Y-6119000D02*
X-512000Y-6119000D01*
X+504000Y-6881000D02*
X-512000Y-6881000D01*
X-996000Y-6119000D02*
X-996000Y-6881000D01*
X-2012000Y-6881000D02*
X-2012000Y-6119000D01*
X-996000Y-6119000D02*
X-2012000Y-6119000D01*
X-996000Y-6881000D02*
X-2012000Y-6881000D01*
X-1996000Y-6119000D02*
X-1996000Y-6881000D01*
X-3012000Y-6881000D02*
X-3012000Y-6119000D01*
X-1996000Y-6119000D02*
X-3012000Y-6119000D01*
X-1996000Y-6881000D02*
X-3012000Y-6881000D01*
M02*
