G04 PROTEUS GERBER X2 FILE*
%TF.GenerationSoftware,Labcenter,Proteus,8.13-SP0-Build31525*%
%TF.CreationDate,2024-05-03T02:53:20+00:00*%
%TF.FileFunction,Copper,L1,Top*%
%TF.FilePolarity,Positive*%
%TF.Part,Single*%
%TF.SameCoordinates,{137ac57f-fe3b-4056-9d75-0866be3f0e1c}*%
%FSLAX45Y45*%
%MOMM*%
G01*
%TA.AperFunction,Conductor*%
%ADD10C,1.270000*%
%TA.AperFunction,ViaPad*%
%ADD11C,0.762000*%
%TA.AperFunction,Conductor*%
%ADD12C,0.254000*%
%TA.AperFunction,ComponentPad*%
%ADD13C,1.524000*%
%TA.AperFunction,ComponentPad*%
%ADD14R,1.270000X1.270000*%
%ADD15C,1.270000*%
%TA.AperFunction,ComponentPad*%
%ADD16C,3.048000*%
%TA.AperFunction,Profile*%
%ADD17C,0.203200*%
%TD.AperFunction*%
G36*
X-7060945Y+6817499D02*
X-7078907Y+6817499D01*
X-7190499Y+6705907D01*
X-7190499Y+6687945D01*
X-7554799Y+6323645D01*
X-7554799Y+5180355D01*
X-7251444Y+4877000D01*
X-7554799Y+4573645D01*
X-7554799Y+3430355D01*
X-7251444Y+3127000D01*
X-7554799Y+2823645D01*
X-7554799Y+1680355D01*
X-7251444Y+1377000D01*
X-7554799Y+1073645D01*
X-7554799Y-69645D01*
X-7251444Y-373000D01*
X-7554799Y-676355D01*
X-7554799Y-1819645D01*
X-7251444Y-2123000D01*
X-7554799Y-2426355D01*
X-7554799Y-3569645D01*
X-7251444Y-3873000D01*
X-7554799Y-4176355D01*
X-7554799Y-5319645D01*
X-7190499Y-5683945D01*
X-7190499Y-5701907D01*
X-7142406Y-5750000D01*
X-7190499Y-5798093D01*
X-7190499Y-5955907D01*
X-7078907Y-6067499D01*
X-6921093Y-6067499D01*
X-6809501Y-5955907D01*
X-6809501Y-5940499D01*
X-6794093Y-5940499D01*
X-6781393Y-5927799D01*
X-4402355Y-5927799D01*
X-3548201Y-5073645D01*
X-3548201Y+2926355D01*
X-3426355Y+3048201D01*
X-3425245Y+3048201D01*
X-3427799Y+3045647D01*
X-3427799Y+2898353D01*
X-3323647Y+2794201D01*
X-3176353Y+2794201D01*
X-3072201Y+2898353D01*
X-3072201Y+3045647D01*
X-3125554Y+3099000D01*
X-3072201Y+3152353D01*
X-3072201Y+3299647D01*
X-3125554Y+3353000D01*
X-3072201Y+3406353D01*
X-3072201Y+3553647D01*
X-3125554Y+3607000D01*
X-3072201Y+3660353D01*
X-3072201Y+3807647D01*
X-3125554Y+3861000D01*
X-3072201Y+3914353D01*
X-3072201Y+4061647D01*
X-3125554Y+4115000D01*
X-3072201Y+4168353D01*
X-3072201Y+4315647D01*
X-3125554Y+4369000D01*
X-3072201Y+4422353D01*
X-3072201Y+4569647D01*
X-3074755Y+4572201D01*
X-3072201Y+4572201D01*
X-3072201Y+4927799D01*
X-6781393Y+4927799D01*
X-6794093Y+4940499D01*
X-6809501Y+4940499D01*
X-6809501Y+4955907D01*
X-6921093Y+5067499D01*
X-6939055Y+5067499D01*
X-7199201Y+5327645D01*
X-7199201Y+6176355D01*
X-7135981Y+6239575D01*
X-7078907Y+6182501D01*
X-6921093Y+6182501D01*
X-6809501Y+6294093D01*
X-6809501Y+6309501D01*
X-6794093Y+6309501D01*
X-6781393Y+6322201D01*
X-3573645Y+6322201D01*
X-2177799Y+4926355D01*
X-2177799Y+4819645D01*
X-2310201Y+4687243D01*
X-2310201Y+4823647D01*
X-2414353Y+4927799D01*
X-2561647Y+4927799D01*
X-2665799Y+4823647D01*
X-2665799Y+4676353D01*
X-2612446Y+4623000D01*
X-2665799Y+4569647D01*
X-2665799Y+4422353D01*
X-2612446Y+4369000D01*
X-2665799Y+4315647D01*
X-2665799Y+4168353D01*
X-2612446Y+4115000D01*
X-2665799Y+4061647D01*
X-2665799Y+3914353D01*
X-2612446Y+3861000D01*
X-2665799Y+3807647D01*
X-2665799Y+3660353D01*
X-2612446Y+3607000D01*
X-2665799Y+3553647D01*
X-2665799Y+3406353D01*
X-2612446Y+3353000D01*
X-2665799Y+3299647D01*
X-2665799Y+3152353D01*
X-2612446Y+3099000D01*
X-2665799Y+3045647D01*
X-2665799Y+2898353D01*
X-2561647Y+2794201D01*
X-2414353Y+2794201D01*
X-2310201Y+2898353D01*
X-2310201Y+3045647D01*
X-2363554Y+3099000D01*
X-2310201Y+3152353D01*
X-2310201Y+3299647D01*
X-2363554Y+3353000D01*
X-2310201Y+3406353D01*
X-2310201Y+3553647D01*
X-2328755Y+3572201D01*
X-675973Y+3572201D01*
X-571821Y+3676353D01*
X-571821Y+3823647D01*
X-675973Y+3927799D01*
X-2310201Y+3927799D01*
X-2310201Y+4061647D01*
X-2363554Y+4115000D01*
X-2310201Y+4168353D01*
X-2310201Y+4315647D01*
X-2312755Y+4318201D01*
X-2176355Y+4318201D01*
X-1822201Y+4672355D01*
X-1822201Y+5072201D01*
X+1323645Y+5072201D01*
X+3073646Y+6822202D01*
X+6426354Y+6822202D01*
X+6572201Y+6676355D01*
X+6572201Y+5696645D01*
X+6500000Y+5624444D01*
X+6440499Y+5683945D01*
X+6440499Y+5701907D01*
X+6392406Y+5750000D01*
X+6440499Y+5798093D01*
X+6440499Y+5955907D01*
X+6328907Y+6067499D01*
X+6171093Y+6067499D01*
X+6059501Y+5955907D01*
X+6059501Y+5940499D01*
X+6044093Y+5940499D01*
X+6031393Y+5927799D01*
X+3402355Y+5927799D01*
X+2548201Y+5073645D01*
X+2548201Y-2926355D01*
X+2426355Y-3048201D01*
X+2425245Y-3048201D01*
X+2427799Y-3045647D01*
X+2427799Y-2898353D01*
X+2323647Y-2794201D01*
X+2176353Y-2794201D01*
X+2072201Y-2898353D01*
X+2072201Y-3045647D01*
X+2125554Y-3099000D01*
X+2072201Y-3152353D01*
X+2072201Y-3299647D01*
X+2125554Y-3353000D01*
X+2072201Y-3406353D01*
X+2072201Y-3553647D01*
X+2125554Y-3607000D01*
X+2072201Y-3660353D01*
X+2072201Y-3807647D01*
X+2125554Y-3861000D01*
X+2072201Y-3914353D01*
X+2072201Y-4061647D01*
X+2125554Y-4115000D01*
X+2072201Y-4168353D01*
X+2072201Y-4315647D01*
X+2125554Y-4369000D01*
X+2072201Y-4422353D01*
X+2072201Y-4569647D01*
X+2074755Y-4572201D01*
X+2072201Y-4572201D01*
X+2072201Y-4927799D01*
X+6031393Y-4927799D01*
X+6044093Y-4940499D01*
X+6059501Y-4940499D01*
X+6059501Y-4955907D01*
X+6171093Y-5067499D01*
X+6189055Y-5067499D01*
X+6322201Y-5200645D01*
X+6322201Y-5432501D01*
X+6171093Y-5432501D01*
X+6059501Y-5544093D01*
X+6059501Y-5559501D01*
X+6044093Y-5559501D01*
X+5932501Y-5671093D01*
X+5932501Y-5828907D01*
X+6044093Y-5940499D01*
X+6059501Y-5940499D01*
X+6059501Y-5955907D01*
X+6171093Y-6067499D01*
X+6322201Y-6067499D01*
X+6322201Y-6182501D01*
X+6171093Y-6182501D01*
X+6059501Y-6294093D01*
X+6059501Y-6309501D01*
X+6044093Y-6309501D01*
X+6031393Y-6322201D01*
X+2573645Y-6322201D01*
X+1177799Y-4926355D01*
X+1177799Y-4819645D01*
X+1310201Y-4687243D01*
X+1310201Y-4823647D01*
X+1414353Y-4927799D01*
X+1561647Y-4927799D01*
X+1665799Y-4823647D01*
X+1665799Y-4676353D01*
X+1612446Y-4623000D01*
X+1665799Y-4569647D01*
X+1665799Y-4422353D01*
X+1612446Y-4369000D01*
X+1665799Y-4315647D01*
X+1665799Y-4168353D01*
X+1612446Y-4115000D01*
X+1665799Y-4061647D01*
X+1665799Y-3914353D01*
X+1612446Y-3861000D01*
X+1665799Y-3807647D01*
X+1665799Y-3660353D01*
X+1612446Y-3607000D01*
X+1665799Y-3553647D01*
X+1665799Y-3406353D01*
X+1612446Y-3353000D01*
X+1665799Y-3299647D01*
X+1665799Y-3152353D01*
X+1612446Y-3099000D01*
X+1665799Y-3045647D01*
X+1665799Y-2898353D01*
X+1561647Y-2794201D01*
X+1414353Y-2794201D01*
X+1310201Y-2898353D01*
X+1310201Y-3045647D01*
X+1363554Y-3099000D01*
X+1310201Y-3152353D01*
X+1310201Y-3299647D01*
X+1363554Y-3353000D01*
X+1310201Y-3406353D01*
X+1310201Y-3553647D01*
X+1312755Y-3556201D01*
X-58027Y-3556201D01*
X-162179Y-3660353D01*
X-162179Y-3807647D01*
X-58027Y-3911799D01*
X+1312755Y-3911799D01*
X+1310201Y-3914353D01*
X+1310201Y-4061647D01*
X+1363554Y-4115000D01*
X+1310201Y-4168353D01*
X+1310201Y-4315647D01*
X+1312755Y-4318201D01*
X+1176355Y-4318201D01*
X+822201Y-4672355D01*
X+822201Y-5073645D01*
X+2426355Y-6677799D01*
X+6031393Y-6677799D01*
X+6044093Y-6690499D01*
X+6059501Y-6690499D01*
X+6059501Y-6705907D01*
X+6171093Y-6817499D01*
X+6328907Y-6817499D01*
X+6440499Y-6705907D01*
X+6440499Y-6687945D01*
X+6573645Y-6554799D01*
X+6573647Y-6554799D01*
X+6677799Y-6450647D01*
X+6677799Y-5053355D01*
X+6501444Y-4877000D01*
X+6677799Y-4700645D01*
X+6677799Y-3303355D01*
X+6501444Y-3127000D01*
X+6677799Y-2950645D01*
X+6677799Y-1553355D01*
X+6501444Y-1377000D01*
X+6677799Y-1200645D01*
X+6677799Y+196645D01*
X+6501444Y+373000D01*
X+6677799Y+549355D01*
X+6677799Y+1946645D01*
X+6501444Y+2123000D01*
X+6677799Y+2299355D01*
X+6677799Y+3696645D01*
X+6501444Y+3873000D01*
X+6677799Y+4049355D01*
X+6677799Y+5299355D01*
X+6750000Y+5371556D01*
X+6750000Y-7000000D01*
X-7750000Y-7000000D01*
X-7750000Y+7000000D01*
X-6878444Y+7000000D01*
X-7060945Y+6817499D01*
G37*
%LPC*%
G36*
X-6809501Y+5955907D02*
X-6809501Y+5940499D01*
X-6794093Y+5940499D01*
X-6682501Y+5828907D01*
X-6682501Y+5671093D01*
X-6794093Y+5559501D01*
X-6809501Y+5559501D01*
X-6809501Y+5544093D01*
X-6921093Y+5432501D01*
X-7078907Y+5432501D01*
X-7190499Y+5544093D01*
X-7190499Y+5701907D01*
X-7142406Y+5750000D01*
X-7190499Y+5798093D01*
X-7190499Y+5955907D01*
X-7078907Y+6067499D01*
X-6921093Y+6067499D01*
X-6809501Y+5955907D01*
G37*
G36*
X-6809501Y-6294093D02*
X-6809501Y-6309501D01*
X-6794093Y-6309501D01*
X-6682501Y-6421093D01*
X-6682501Y-6578907D01*
X-6794093Y-6690499D01*
X-6809501Y-6690499D01*
X-6809501Y-6705907D01*
X-6921093Y-6817499D01*
X-7078907Y-6817499D01*
X-7190499Y-6705907D01*
X-7190499Y-6548093D01*
X-7142406Y-6500000D01*
X-7190499Y-6451907D01*
X-7190499Y-6294093D01*
X-7078907Y-6182501D01*
X-6921093Y-6182501D01*
X-6809501Y-6294093D01*
G37*
G36*
X-3072201Y+2072201D02*
X-3074755Y+2072201D01*
X-3072201Y+2069647D01*
X-3072201Y+1922353D01*
X-3125554Y+1869000D01*
X-3072201Y+1815647D01*
X-3072201Y+1668353D01*
X-3125554Y+1615000D01*
X-3072201Y+1561647D01*
X-3072201Y+1414353D01*
X-3125554Y+1361000D01*
X-3072201Y+1307647D01*
X-3072201Y+1160353D01*
X-3125554Y+1107000D01*
X-3072201Y+1053647D01*
X-3072201Y+906353D01*
X-3125554Y+853000D01*
X-3072201Y+799647D01*
X-3072201Y+652353D01*
X-3125554Y+599000D01*
X-3072201Y+545647D01*
X-3072201Y+398353D01*
X-3176353Y+294201D01*
X-3323647Y+294201D01*
X-3427799Y+398353D01*
X-3427799Y+545647D01*
X-3374446Y+599000D01*
X-3427799Y+652353D01*
X-3427799Y+799647D01*
X-3374446Y+853000D01*
X-3427799Y+906353D01*
X-3427799Y+1053647D01*
X-3374446Y+1107000D01*
X-3427799Y+1160353D01*
X-3427799Y+1307647D01*
X-3374446Y+1361000D01*
X-3427799Y+1414353D01*
X-3427799Y+1561647D01*
X-3374446Y+1615000D01*
X-3427799Y+1668353D01*
X-3427799Y+1815647D01*
X-3374446Y+1869000D01*
X-3427799Y+1922353D01*
X-3427799Y+2069647D01*
X-3425245Y+2072201D01*
X-3427799Y+2072201D01*
X-3427799Y+2427799D01*
X-3072201Y+2427799D01*
X-3072201Y+2072201D01*
G37*
G36*
X-2310201Y+2323647D02*
X-2310201Y+2176353D01*
X-2363554Y+2123000D01*
X-2310201Y+2069647D01*
X-2310201Y+1922353D01*
X-2363554Y+1869000D01*
X-2310201Y+1815647D01*
X-2310201Y+1668353D01*
X-2363554Y+1615000D01*
X-2310201Y+1561647D01*
X-2310201Y+1414353D01*
X-2312755Y+1411799D01*
X+1324027Y+1411799D01*
X+1428179Y+1307647D01*
X+1428179Y+1160353D01*
X+1324027Y+1056201D01*
X-2312755Y+1056201D01*
X-2310201Y+1053647D01*
X-2310201Y+906353D01*
X-2363554Y+853000D01*
X-2310201Y+799647D01*
X-2310201Y+652353D01*
X-2363554Y+599000D01*
X-2310201Y+545647D01*
X-2310201Y+398353D01*
X-2414353Y+294201D01*
X-2561647Y+294201D01*
X-2665799Y+398353D01*
X-2665799Y+545647D01*
X-2612446Y+599000D01*
X-2665799Y+652353D01*
X-2665799Y+799647D01*
X-2612446Y+853000D01*
X-2665799Y+906353D01*
X-2665799Y+1053647D01*
X-2612446Y+1107000D01*
X-2665799Y+1160353D01*
X-2665799Y+1307647D01*
X-2612446Y+1361000D01*
X-2665799Y+1414353D01*
X-2665799Y+1561647D01*
X-2612446Y+1615000D01*
X-2665799Y+1668353D01*
X-2665799Y+1815647D01*
X-2612446Y+1869000D01*
X-2665799Y+1922353D01*
X-2665799Y+2069647D01*
X-2612446Y+2123000D01*
X-2665799Y+2176353D01*
X-2665799Y+2323647D01*
X-2561647Y+2427799D01*
X-2414353Y+2427799D01*
X-2310201Y+2323647D01*
G37*
G36*
X+2427799Y-398353D02*
X+2427799Y-545647D01*
X+2374446Y-599000D01*
X+2427799Y-652353D01*
X+2427799Y-799647D01*
X+2374446Y-853000D01*
X+2427799Y-906353D01*
X+2427799Y-1053647D01*
X+2374446Y-1107000D01*
X+2427799Y-1160353D01*
X+2427799Y-1307647D01*
X+2374446Y-1361000D01*
X+2427799Y-1414353D01*
X+2427799Y-1561647D01*
X+2374446Y-1615000D01*
X+2427799Y-1668353D01*
X+2427799Y-1815647D01*
X+2374446Y-1869000D01*
X+2427799Y-1922353D01*
X+2427799Y-2069647D01*
X+2425245Y-2072201D01*
X+2427799Y-2072201D01*
X+2427799Y-2427799D01*
X+2072201Y-2427799D01*
X+2072201Y-2072201D01*
X+2074755Y-2072201D01*
X+2072201Y-2069647D01*
X+2072201Y-1922353D01*
X+2125554Y-1869000D01*
X+2072201Y-1815647D01*
X+2072201Y-1668353D01*
X+2125554Y-1615000D01*
X+2072201Y-1561647D01*
X+2072201Y-1414353D01*
X+2125554Y-1361000D01*
X+2072201Y-1307647D01*
X+2072201Y-1160353D01*
X+2125554Y-1107000D01*
X+2072201Y-1053647D01*
X+2072201Y-906353D01*
X+2125554Y-853000D01*
X+2072201Y-799647D01*
X+2072201Y-652353D01*
X+2125554Y-599000D01*
X+2072201Y-545647D01*
X+2072201Y-398353D01*
X+2176353Y-294201D01*
X+2323647Y-294201D01*
X+2427799Y-398353D01*
G37*
G36*
X+1665799Y-398353D02*
X+1665799Y-545647D01*
X+1612446Y-599000D01*
X+1665799Y-652353D01*
X+1665799Y-799647D01*
X+1612446Y-853000D01*
X+1665799Y-906353D01*
X+1665799Y-1053647D01*
X+1612446Y-1107000D01*
X+1665799Y-1160353D01*
X+1665799Y-1307647D01*
X+1612446Y-1361000D01*
X+1665799Y-1414353D01*
X+1665799Y-1561647D01*
X+1612446Y-1615000D01*
X+1665799Y-1668353D01*
X+1665799Y-1815647D01*
X+1612446Y-1869000D01*
X+1665799Y-1922353D01*
X+1665799Y-2069647D01*
X+1612446Y-2123000D01*
X+1665799Y-2176353D01*
X+1665799Y-2323647D01*
X+1561647Y-2427799D01*
X+1414353Y-2427799D01*
X+1310201Y-2323647D01*
X+1310201Y-2176353D01*
X+1363554Y-2123000D01*
X+1310201Y-2069647D01*
X+1310201Y-1922353D01*
X+1363554Y-1869000D01*
X+1310201Y-1815647D01*
X+1310201Y-1668353D01*
X+1363554Y-1615000D01*
X+1310201Y-1561647D01*
X+1310201Y-1427799D01*
X-2574027Y-1427799D01*
X-2678179Y-1323647D01*
X-2678179Y-1176353D01*
X-2574027Y-1072201D01*
X+1328755Y-1072201D01*
X+1310201Y-1053647D01*
X+1310201Y-906353D01*
X+1363554Y-853000D01*
X+1310201Y-799647D01*
X+1310201Y-652353D01*
X+1363554Y-599000D01*
X+1310201Y-545647D01*
X+1310201Y-398353D01*
X+1414353Y-294201D01*
X+1561647Y-294201D01*
X+1665799Y-398353D01*
G37*
G36*
X+6440499Y+6705907D02*
X+6440499Y+6548093D01*
X+6392406Y+6500000D01*
X+6440499Y+6451907D01*
X+6440499Y+6294093D01*
X+6328907Y+6182501D01*
X+6171093Y+6182501D01*
X+6059501Y+6294093D01*
X+6059501Y+6309501D01*
X+6044093Y+6309501D01*
X+5932501Y+6421093D01*
X+5932501Y+6578907D01*
X+6044093Y+6690499D01*
X+6059501Y+6690499D01*
X+6059501Y+6705907D01*
X+6171093Y+6817499D01*
X+6328907Y+6817499D01*
X+6440499Y+6705907D01*
G37*
G36*
X+1517079Y-6389530D02*
X+1517079Y-6610470D01*
X+1360850Y-6766699D01*
X+1139910Y-6766699D01*
X+1000190Y-6626979D01*
X+860470Y-6766699D01*
X+639530Y-6766699D01*
X+500000Y-6627169D01*
X+360470Y-6766699D01*
X+139530Y-6766699D01*
X-190Y-6626979D01*
X-139910Y-6766699D01*
X-360850Y-6766699D01*
X-517079Y-6610470D01*
X-517079Y-6389530D01*
X-360850Y-6233301D01*
X-139910Y-6233301D01*
X-190Y-6373021D01*
X+139530Y-6233301D01*
X+360470Y-6233301D01*
X+500000Y-6372831D01*
X+639530Y-6233301D01*
X+860470Y-6233301D01*
X+1000190Y-6373021D01*
X+1139910Y-6233301D01*
X+1360850Y-6233301D01*
X+1517079Y-6389530D01*
G37*
G36*
X-983301Y-6389530D02*
X-983301Y-6610470D01*
X-1139530Y-6766699D01*
X-1360470Y-6766699D01*
X-1500190Y-6626979D01*
X-1639910Y-6766699D01*
X-1860850Y-6766699D01*
X-2000190Y-6627359D01*
X-2139530Y-6766699D01*
X-2360470Y-6766699D01*
X-2500190Y-6626979D01*
X-2639910Y-6766699D01*
X-2860850Y-6766699D01*
X-3017079Y-6610470D01*
X-3017079Y-6389530D01*
X-2860850Y-6233301D01*
X-2639910Y-6233301D01*
X-2500190Y-6373021D01*
X-2360470Y-6233301D01*
X-2139530Y-6233301D01*
X-2000190Y-6372641D01*
X-1860850Y-6233301D01*
X-1639910Y-6233301D01*
X-1500190Y-6373021D01*
X-1360470Y-6233301D01*
X-1139530Y-6233301D01*
X-983301Y-6389530D01*
G37*
%LPD*%
D10*
X-2488000Y+4496000D02*
X-2250000Y+4496000D01*
X-2000000Y+4746000D01*
X-2000000Y+5000000D01*
X-2250000Y+5250000D01*
X-3500000Y+6500000D01*
X-6873000Y+6500000D01*
X-3250000Y+4750000D02*
X-6873000Y+4750000D01*
X-6873000Y+3000000D02*
X-6250000Y+3000000D01*
X-4754000Y+4496000D01*
X-3250000Y+4496000D01*
X-3250000Y+4242000D02*
X-4500000Y+4242000D01*
X-5742000Y+3000000D01*
X-5742000Y+1750000D01*
X-6242000Y+1250000D01*
X-6873000Y+1250000D01*
X-3250000Y+3988000D02*
X-4250000Y+3988000D01*
X-5238000Y+3000000D01*
X-5238000Y+250000D01*
X-5988000Y-500000D01*
X-6873000Y-500000D01*
X-3250000Y+3734000D02*
X-4000000Y+3734000D01*
X-4734000Y+3000000D01*
X-4734000Y-1500000D01*
X-5484000Y-2250000D01*
X-6873000Y-2250000D01*
X-3250000Y+3480000D02*
X-3750000Y+3480000D01*
X-4230000Y+3000000D01*
X-4230000Y-3000000D01*
X-5230000Y-4000000D01*
X-6873000Y-4000000D01*
X-3250000Y+3226000D02*
X-3500000Y+3226000D01*
X-3726000Y+3000000D01*
X-3726000Y-5000000D01*
X-4476000Y-5750000D01*
X-6873000Y-5750000D01*
X-7000000Y+6627000D02*
X-7377000Y+6250000D01*
X-7377000Y+5254000D01*
X-7000000Y+4877000D01*
X-7377000Y+4500000D01*
X-7377000Y+3504000D01*
X-7000000Y+3127000D01*
X-7377000Y+2750000D01*
X-7377000Y+1754000D01*
X-7000000Y+1377000D01*
X-7377000Y+1000000D01*
X-7377000Y+4000D01*
X-7000000Y-373000D01*
X-7377000Y-750000D01*
X-7377000Y-1746000D01*
X-7000000Y-2123000D01*
X-7377000Y-2500000D01*
X-7377000Y-3496000D01*
X-7000000Y-3873000D01*
X-7377000Y-4250000D01*
X-7377000Y-5246000D01*
X-7000000Y-5623000D01*
X+1488000Y-4496000D02*
X+1250000Y-4496000D01*
X+1000000Y-4746000D01*
X+1000000Y-5000000D01*
X+2500000Y-6500000D01*
X+6123000Y-6500000D01*
X+2250000Y-4750000D02*
X+6123000Y-4750000D01*
X+2250000Y-3226000D02*
X+2500000Y-3226000D01*
X+2726000Y-3000000D01*
X+2726000Y+5000000D01*
X+3476000Y+5750000D01*
X+6123000Y+5750000D01*
X+2250000Y-3480000D02*
X+2750000Y-3480000D01*
X+3230000Y-3000000D01*
X+3230000Y+3250000D01*
X+3980000Y+4000000D01*
X+6123000Y+4000000D01*
X+2250000Y-3734000D02*
X+3000000Y-3734000D01*
X+3734000Y-3000000D01*
X+3734000Y+1250000D01*
X+3734000Y+1500000D01*
X+4484000Y+2250000D01*
X+6123000Y+2250000D01*
X+2250000Y-3988000D02*
X+3250000Y-3988000D01*
X+4238000Y-3000000D01*
X+4238000Y-250000D01*
X+4988000Y+500000D01*
X+6123000Y+500000D01*
X+2250000Y-4242000D02*
X+3500000Y-4242000D01*
X+4742000Y-3000000D01*
X+4742000Y-2000000D01*
X+5492000Y-1250000D01*
X+6123000Y-1250000D01*
X+2250000Y-4496000D02*
X+3750000Y-4496000D01*
X+5246000Y-3000000D01*
X+6123000Y-3000000D01*
X-749620Y+3750000D02*
X-2424500Y+3750000D01*
X-2488000Y+3734000D01*
X+1250380Y+1234000D02*
X-2488000Y+1234000D01*
X+15620Y-3734000D02*
X+1488000Y-3734000D01*
X-2500380Y-1250000D02*
X+1424500Y-1250000D01*
X+1488000Y-1234000D01*
X+6250000Y-4877000D02*
X+6500000Y-4627000D01*
X+6500000Y-3377000D01*
X+6250000Y-3127000D01*
X+6500000Y-2877000D01*
X+6500000Y-1627000D01*
X+6250000Y-1377000D01*
X+6500000Y-1127000D01*
X+6500000Y+123000D01*
X+6250000Y+373000D01*
X+6500000Y+623000D01*
X+6500000Y+1873000D01*
X+6250000Y+2123000D01*
X+6500000Y+2373000D01*
X+6500000Y+3623000D01*
X+6250000Y+3873000D01*
X+6250000Y-6627000D02*
X+6500000Y-6377000D01*
X+6500000Y-5127000D01*
X+6250000Y-4877000D01*
X+6500000Y+5373000D02*
X+6750000Y+5623000D01*
X+6750000Y+6750000D01*
X+6500000Y+7000000D01*
X+3000000Y+7000000D01*
X+1250000Y+5250000D01*
X-1750000Y+5250000D01*
X-3500000Y+7000000D01*
X-6627000Y+7000000D01*
X-7000000Y+6627000D01*
X+6250000Y+3873000D02*
X+6500000Y+4123000D01*
X+6500000Y+5373000D01*
X+6250000Y+5623000D01*
D11*
X-749620Y+3750000D03*
X+1250380Y+1234000D03*
X+15620Y-3734000D03*
X-2500380Y-1250000D03*
D10*
X-7060945Y+6817499D02*
X-7078907Y+6817499D01*
X-7190499Y+6705907D01*
X-7190499Y+6687945D01*
X-7554799Y+6323645D01*
X-7554799Y+5180355D01*
X-7251444Y+4877000D01*
X-7554799Y+4573645D01*
X-7554799Y+3430355D01*
X-7251444Y+3127000D01*
X-7554799Y+2823645D01*
X-7554799Y+1680355D01*
X-7251444Y+1377000D01*
X-7554799Y+1073645D01*
X-7554799Y-69645D01*
X-7251444Y-373000D01*
X-7554799Y-676355D01*
X-7554799Y-1819645D01*
X-7251444Y-2123000D01*
X-7554799Y-2426355D01*
X-7554799Y-3569645D01*
X-7251444Y-3873000D01*
X-7554799Y-4176355D01*
X-7554799Y-5319645D01*
X-7190499Y-5683945D01*
X-7190499Y-5701907D01*
X-7142406Y-5750000D01*
X-7190499Y-5798093D01*
X-7190499Y-5955907D01*
X-7078907Y-6067499D01*
X-6921093Y-6067499D01*
X-6809501Y-5955907D01*
X-6809501Y-5940499D01*
X-6794093Y-5940499D01*
X-6781393Y-5927799D01*
X-4402355Y-5927799D01*
X-3548201Y-5073645D01*
X-3548201Y+2926355D01*
X-3426355Y+3048201D01*
X-3425245Y+3048201D01*
X-3427799Y+3045647D01*
X-3427799Y+2898353D01*
X-3323647Y+2794201D01*
X-3176353Y+2794201D01*
X-3072201Y+2898353D01*
X-3072201Y+3045647D01*
X-3125554Y+3099000D01*
X-3072201Y+3152353D01*
X-3072201Y+3299647D01*
X-3125554Y+3353000D01*
X-3072201Y+3406353D01*
X-3072201Y+3553647D01*
X-3125554Y+3607000D01*
X-3072201Y+3660353D01*
X-3072201Y+3807647D01*
X-3125554Y+3861000D01*
X-3072201Y+3914353D01*
X-3072201Y+4061647D01*
X-3125554Y+4115000D01*
X-3072201Y+4168353D01*
X-3072201Y+4315647D01*
X-3125554Y+4369000D01*
X-3072201Y+4422353D01*
X-3072201Y+4569647D01*
X-3074755Y+4572201D01*
X-3072201Y+4572201D01*
X-3072201Y+4927799D01*
X-6781393Y+4927799D01*
X-6794093Y+4940499D01*
X-6809501Y+4940499D01*
X-6809501Y+4955907D01*
X-6921093Y+5067499D01*
X-6939055Y+5067499D01*
X-7199201Y+5327645D01*
X-7199201Y+6176355D01*
X-7135981Y+6239575D01*
X-7078907Y+6182501D01*
X-6921093Y+6182501D01*
X-6809501Y+6294093D01*
X-6809501Y+6309501D01*
X-6794093Y+6309501D01*
X-6781393Y+6322201D01*
X-3573645Y+6322201D01*
X-2177799Y+4926355D01*
X-2177799Y+4819645D01*
X-2310201Y+4687243D01*
X-2310201Y+4823647D01*
X-2414353Y+4927799D01*
X-2561647Y+4927799D01*
X-2665799Y+4823647D01*
X-2665799Y+4676353D01*
X-2612446Y+4623000D01*
X-2665799Y+4569647D01*
X-2665799Y+4422353D01*
X-2612446Y+4369000D01*
X-2665799Y+4315647D01*
X-2665799Y+4168353D01*
X-2612446Y+4115000D01*
X-2665799Y+4061647D01*
X-2665799Y+3914353D01*
X-2612446Y+3861000D01*
X-2665799Y+3807647D01*
X-2665799Y+3660353D01*
X-2612446Y+3607000D01*
X-2665799Y+3553647D01*
X-2665799Y+3406353D01*
X-2612446Y+3353000D01*
X-2665799Y+3299647D01*
X-2665799Y+3152353D01*
X-2612446Y+3099000D01*
X-2665799Y+3045647D01*
X-2665799Y+2898353D01*
X-2561647Y+2794201D01*
X-2414353Y+2794201D01*
X-2310201Y+2898353D01*
X-2310201Y+3045647D01*
X-2363554Y+3099000D01*
X-2310201Y+3152353D01*
X-2310201Y+3299647D01*
X-2363554Y+3353000D01*
X-2310201Y+3406353D01*
X-2310201Y+3553647D01*
X-2328755Y+3572201D01*
X-675973Y+3572201D01*
X-571821Y+3676353D01*
X-571821Y+3823647D01*
X-675973Y+3927799D01*
X-2310201Y+3927799D01*
X-2310201Y+4061647D01*
X-2363554Y+4115000D01*
X-2310201Y+4168353D01*
X-2310201Y+4315647D01*
X-2312755Y+4318201D01*
X-2176355Y+4318201D01*
X-1822201Y+4672355D01*
X-1822201Y+5072201D01*
X+1323645Y+5072201D01*
X+3073646Y+6822202D01*
X+6426354Y+6822202D01*
X+6572201Y+6676355D01*
X+6572201Y+5696645D01*
X+6500000Y+5624444D01*
X+6440499Y+5683945D01*
X+6440499Y+5701907D01*
X+6392406Y+5750000D01*
X+6440499Y+5798093D01*
X+6440499Y+5955907D01*
X+6328907Y+6067499D01*
X+6171093Y+6067499D01*
X+6059501Y+5955907D01*
X+6059501Y+5940499D01*
X+6044093Y+5940499D01*
X+6031393Y+5927799D01*
X+3402355Y+5927799D01*
X+2548201Y+5073645D01*
X+2548201Y-2926355D01*
X+2426355Y-3048201D01*
X+2425245Y-3048201D01*
X+2427799Y-3045647D01*
X+2427799Y-2898353D01*
X+2323647Y-2794201D01*
X+2176353Y-2794201D01*
X+2072201Y-2898353D01*
X+2072201Y-3045647D01*
X+2125554Y-3099000D01*
X+2072201Y-3152353D01*
X+2072201Y-3299647D01*
X+2125554Y-3353000D01*
X+2072201Y-3406353D01*
X+2072201Y-3553647D01*
X+2125554Y-3607000D01*
X+2072201Y-3660353D01*
X+2072201Y-3807647D01*
X+2125554Y-3861000D01*
X+2072201Y-3914353D01*
X+2072201Y-4061647D01*
X+2125554Y-4115000D01*
X+2072201Y-4168353D01*
X+2072201Y-4315647D01*
X+2125554Y-4369000D01*
X+2072201Y-4422353D01*
X+2072201Y-4569647D01*
X+2074755Y-4572201D01*
X+2072201Y-4572201D01*
X+2072201Y-4927799D01*
X+6031393Y-4927799D01*
X+6044093Y-4940499D01*
X+6059501Y-4940499D01*
X+6059501Y-4955907D01*
X+6171093Y-5067499D01*
X+6189055Y-5067499D01*
X+6322201Y-5200645D01*
X+6322201Y-5432501D01*
X+6171093Y-5432501D01*
X+6059501Y-5544093D01*
X+6059501Y-5559501D01*
X+6044093Y-5559501D01*
X+5932501Y-5671093D01*
X+5932501Y-5828907D01*
X+6044093Y-5940499D01*
X+6059501Y-5940499D01*
X+6059501Y-5955907D01*
X+6171093Y-6067499D01*
X+6322201Y-6067499D01*
X+6322201Y-6182501D01*
X+6171093Y-6182501D01*
X+6059501Y-6294093D01*
X+6059501Y-6309501D01*
X+6044093Y-6309501D01*
X+6031393Y-6322201D01*
X+2573645Y-6322201D01*
X+1177799Y-4926355D01*
X+1177799Y-4819645D01*
X+1310201Y-4687243D01*
X+1310201Y-4823647D01*
X+1414353Y-4927799D01*
X+1561647Y-4927799D01*
X+1665799Y-4823647D01*
X+1665799Y-4676353D01*
X+1612446Y-4623000D01*
X+1665799Y-4569647D01*
X+1665799Y-4422353D01*
X+1612446Y-4369000D01*
X+1665799Y-4315647D01*
X+1665799Y-4168353D01*
X+1612446Y-4115000D01*
X+1665799Y-4061647D01*
X+1665799Y-3914353D01*
X+1612446Y-3861000D01*
X+1665799Y-3807647D01*
X+1665799Y-3660353D01*
X+1612446Y-3607000D01*
X+1665799Y-3553647D01*
X+1665799Y-3406353D01*
X+1612446Y-3353000D01*
X+1665799Y-3299647D01*
X+1665799Y-3152353D01*
X+1612446Y-3099000D01*
X+1665799Y-3045647D01*
X+1665799Y-2898353D01*
X+1561647Y-2794201D01*
X+1414353Y-2794201D01*
X+1310201Y-2898353D01*
X+1310201Y-3045647D01*
X+1363554Y-3099000D01*
X+1310201Y-3152353D01*
X+1310201Y-3299647D01*
X+1363554Y-3353000D01*
X+1310201Y-3406353D01*
X+1310201Y-3553647D01*
X+1312755Y-3556201D01*
X-58027Y-3556201D01*
X-162179Y-3660353D01*
X-162179Y-3807647D01*
X-58027Y-3911799D01*
X+1312755Y-3911799D01*
X+1310201Y-3914353D01*
X+1310201Y-4061647D01*
X+1363554Y-4115000D01*
X+1310201Y-4168353D01*
X+1310201Y-4315647D01*
X+1312755Y-4318201D01*
X+1176355Y-4318201D01*
X+822201Y-4672355D01*
X+822201Y-5073645D01*
X+2426355Y-6677799D01*
X+6031393Y-6677799D01*
X+6044093Y-6690499D01*
X+6059501Y-6690499D01*
X+6059501Y-6705907D01*
X+6171093Y-6817499D01*
X+6328907Y-6817499D01*
X+6440499Y-6705907D01*
X+6440499Y-6687945D01*
X+6573645Y-6554799D01*
X+6573647Y-6554799D01*
X+6677799Y-6450647D01*
X+6677799Y-5053355D01*
X+6501444Y-4877000D01*
X+6677799Y-4700645D01*
X+6677799Y-3303355D01*
X+6501444Y-3127000D01*
X+6677799Y-2950645D01*
X+6677799Y-1553355D01*
X+6501444Y-1377000D01*
X+6677799Y-1200645D01*
X+6677799Y+196645D01*
X+6501444Y+373000D01*
X+6677799Y+549355D01*
X+6677799Y+1946645D01*
X+6501444Y+2123000D01*
X+6677799Y+2299355D01*
X+6677799Y+3696645D01*
X+6501444Y+3873000D01*
X+6677799Y+4049355D01*
X+6677799Y+5299355D01*
X+6750000Y+5371556D01*
X+6750000Y-7000000D01*
X-7750000Y-7000000D01*
X-7750000Y+7000000D01*
X-6878444Y+7000000D01*
X-7060945Y+6817499D01*
X-6809501Y+5955907D02*
X-6809501Y+5940499D01*
X-6794093Y+5940499D01*
X-6682501Y+5828907D01*
X-6682501Y+5671093D01*
X-6794093Y+5559501D01*
X-6809501Y+5559501D01*
X-6809501Y+5544093D01*
X-6921093Y+5432501D01*
X-7078907Y+5432501D01*
X-7190499Y+5544093D01*
X-7190499Y+5701907D01*
X-7142406Y+5750000D01*
X-7190499Y+5798093D01*
X-7190499Y+5955907D01*
X-7078907Y+6067499D01*
X-6921093Y+6067499D01*
X-6809501Y+5955907D01*
X-6809501Y-6294093D02*
X-6809501Y-6309501D01*
X-6794093Y-6309501D01*
X-6682501Y-6421093D01*
X-6682501Y-6578907D01*
X-6794093Y-6690499D01*
X-6809501Y-6690499D01*
X-6809501Y-6705907D01*
X-6921093Y-6817499D01*
X-7078907Y-6817499D01*
X-7190499Y-6705907D01*
X-7190499Y-6548093D01*
X-7142406Y-6500000D01*
X-7190499Y-6451907D01*
X-7190499Y-6294093D01*
X-7078907Y-6182501D01*
X-6921093Y-6182501D01*
X-6809501Y-6294093D01*
X-3072201Y+2072201D02*
X-3074755Y+2072201D01*
X-3072201Y+2069647D01*
X-3072201Y+1922353D01*
X-3125554Y+1869000D01*
X-3072201Y+1815647D01*
X-3072201Y+1668353D01*
X-3125554Y+1615000D01*
X-3072201Y+1561647D01*
X-3072201Y+1414353D01*
X-3125554Y+1361000D01*
X-3072201Y+1307647D01*
X-3072201Y+1160353D01*
X-3125554Y+1107000D01*
X-3072201Y+1053647D01*
X-3072201Y+906353D01*
X-3125554Y+853000D01*
X-3072201Y+799647D01*
X-3072201Y+652353D01*
X-3125554Y+599000D01*
X-3072201Y+545647D01*
X-3072201Y+398353D01*
X-3176353Y+294201D01*
X-3323647Y+294201D01*
X-3427799Y+398353D01*
X-3427799Y+545647D01*
X-3374446Y+599000D01*
X-3427799Y+652353D01*
X-3427799Y+799647D01*
X-3374446Y+853000D01*
X-3427799Y+906353D01*
X-3427799Y+1053647D01*
X-3374446Y+1107000D01*
X-3427799Y+1160353D01*
X-3427799Y+1307647D01*
X-3374446Y+1361000D01*
X-3427799Y+1414353D01*
X-3427799Y+1561647D01*
X-3374446Y+1615000D01*
X-3427799Y+1668353D01*
X-3427799Y+1815647D01*
X-3374446Y+1869000D01*
X-3427799Y+1922353D01*
X-3427799Y+2069647D01*
X-3425245Y+2072201D01*
X-3427799Y+2072201D01*
X-3427799Y+2427799D01*
X-3072201Y+2427799D01*
X-3072201Y+2072201D01*
X-2310201Y+2323647D02*
X-2310201Y+2176353D01*
X-2363554Y+2123000D01*
X-2310201Y+2069647D01*
X-2310201Y+1922353D01*
X-2363554Y+1869000D01*
X-2310201Y+1815647D01*
X-2310201Y+1668353D01*
X-2363554Y+1615000D01*
X-2310201Y+1561647D01*
X-2310201Y+1414353D01*
X-2312755Y+1411799D01*
X+1324027Y+1411799D01*
X+1428179Y+1307647D01*
X+1428179Y+1160353D01*
X+1324027Y+1056201D01*
X-2312755Y+1056201D01*
X-2310201Y+1053647D01*
X-2310201Y+906353D01*
X-2363554Y+853000D01*
X-2310201Y+799647D01*
X-2310201Y+652353D01*
X-2363554Y+599000D01*
X-2310201Y+545647D01*
X-2310201Y+398353D01*
X-2414353Y+294201D01*
X-2561647Y+294201D01*
X-2665799Y+398353D01*
X-2665799Y+545647D01*
X-2612446Y+599000D01*
X-2665799Y+652353D01*
X-2665799Y+799647D01*
X-2612446Y+853000D01*
X-2665799Y+906353D01*
X-2665799Y+1053647D01*
X-2612446Y+1107000D01*
X-2665799Y+1160353D01*
X-2665799Y+1307647D01*
X-2612446Y+1361000D01*
X-2665799Y+1414353D01*
X-2665799Y+1561647D01*
X-2612446Y+1615000D01*
X-2665799Y+1668353D01*
X-2665799Y+1815647D01*
X-2612446Y+1869000D01*
X-2665799Y+1922353D01*
X-2665799Y+2069647D01*
X-2612446Y+2123000D01*
X-2665799Y+2176353D01*
X-2665799Y+2323647D01*
X-2561647Y+2427799D01*
X-2414353Y+2427799D01*
X-2310201Y+2323647D01*
X+2427799Y-398353D02*
X+2427799Y-545647D01*
X+2374446Y-599000D01*
X+2427799Y-652353D01*
X+2427799Y-799647D01*
X+2374446Y-853000D01*
X+2427799Y-906353D01*
X+2427799Y-1053647D01*
X+2374446Y-1107000D01*
X+2427799Y-1160353D01*
X+2427799Y-1307647D01*
X+2374446Y-1361000D01*
X+2427799Y-1414353D01*
X+2427799Y-1561647D01*
X+2374446Y-1615000D01*
X+2427799Y-1668353D01*
X+2427799Y-1815647D01*
X+2374446Y-1869000D01*
X+2427799Y-1922353D01*
X+2427799Y-2069647D01*
X+2425245Y-2072201D01*
X+2427799Y-2072201D01*
X+2427799Y-2427799D01*
X+2072201Y-2427799D01*
X+2072201Y-2072201D01*
X+2074755Y-2072201D01*
X+2072201Y-2069647D01*
X+2072201Y-1922353D01*
X+2125554Y-1869000D01*
X+2072201Y-1815647D01*
X+2072201Y-1668353D01*
X+2125554Y-1615000D01*
X+2072201Y-1561647D01*
X+2072201Y-1414353D01*
X+2125554Y-1361000D01*
X+2072201Y-1307647D01*
X+2072201Y-1160353D01*
X+2125554Y-1107000D01*
X+2072201Y-1053647D01*
X+2072201Y-906353D01*
X+2125554Y-853000D01*
X+2072201Y-799647D01*
X+2072201Y-652353D01*
X+2125554Y-599000D01*
X+2072201Y-545647D01*
X+2072201Y-398353D01*
X+2176353Y-294201D01*
X+2323647Y-294201D01*
X+2427799Y-398353D01*
X+1665799Y-398353D02*
X+1665799Y-545647D01*
X+1612446Y-599000D01*
X+1665799Y-652353D01*
X+1665799Y-799647D01*
X+1612446Y-853000D01*
X+1665799Y-906353D01*
X+1665799Y-1053647D01*
X+1612446Y-1107000D01*
X+1665799Y-1160353D01*
X+1665799Y-1307647D01*
X+1612446Y-1361000D01*
X+1665799Y-1414353D01*
X+1665799Y-1561647D01*
X+1612446Y-1615000D01*
X+1665799Y-1668353D01*
X+1665799Y-1815647D01*
X+1612446Y-1869000D01*
X+1665799Y-1922353D01*
X+1665799Y-2069647D01*
X+1612446Y-2123000D01*
X+1665799Y-2176353D01*
X+1665799Y-2323647D01*
X+1561647Y-2427799D01*
X+1414353Y-2427799D01*
X+1310201Y-2323647D01*
X+1310201Y-2176353D01*
X+1363554Y-2123000D01*
X+1310201Y-2069647D01*
X+1310201Y-1922353D01*
X+1363554Y-1869000D01*
X+1310201Y-1815647D01*
X+1310201Y-1668353D01*
X+1363554Y-1615000D01*
X+1310201Y-1561647D01*
X+1310201Y-1427799D01*
X-2574027Y-1427799D01*
X-2678179Y-1323647D01*
X-2678179Y-1176353D01*
X-2574027Y-1072201D01*
X+1328755Y-1072201D01*
X+1310201Y-1053647D01*
X+1310201Y-906353D01*
X+1363554Y-853000D01*
X+1310201Y-799647D01*
X+1310201Y-652353D01*
X+1363554Y-599000D01*
X+1310201Y-545647D01*
X+1310201Y-398353D01*
X+1414353Y-294201D01*
X+1561647Y-294201D01*
X+1665799Y-398353D01*
X+6440499Y+6705907D02*
X+6440499Y+6548093D01*
X+6392406Y+6500000D01*
X+6440499Y+6451907D01*
X+6440499Y+6294093D01*
X+6328907Y+6182501D01*
X+6171093Y+6182501D01*
X+6059501Y+6294093D01*
X+6059501Y+6309501D01*
X+6044093Y+6309501D01*
X+5932501Y+6421093D01*
X+5932501Y+6578907D01*
X+6044093Y+6690499D01*
X+6059501Y+6690499D01*
X+6059501Y+6705907D01*
X+6171093Y+6817499D01*
X+6328907Y+6817499D01*
X+6440499Y+6705907D01*
X+1517079Y-6389530D02*
X+1517079Y-6610470D01*
X+1360850Y-6766699D01*
X+1139910Y-6766699D01*
X+1000190Y-6626979D01*
X+860470Y-6766699D01*
X+639530Y-6766699D01*
X+500000Y-6627169D01*
X+360470Y-6766699D01*
X+139530Y-6766699D01*
X-190Y-6626979D01*
X-139910Y-6766699D01*
X-360850Y-6766699D01*
X-517079Y-6610470D01*
X-517079Y-6389530D01*
X-360850Y-6233301D01*
X-139910Y-6233301D01*
X-190Y-6373021D01*
X+139530Y-6233301D01*
X+360470Y-6233301D01*
X+500000Y-6372831D01*
X+639530Y-6233301D01*
X+860470Y-6233301D01*
X+1000190Y-6373021D01*
X+1139910Y-6233301D01*
X+1360850Y-6233301D01*
X+1517079Y-6389530D01*
X-983301Y-6389530D02*
X-983301Y-6610470D01*
X-1139530Y-6766699D01*
X-1360470Y-6766699D01*
X-1500190Y-6626979D01*
X-1639910Y-6766699D01*
X-1860850Y-6766699D01*
X-2000190Y-6627359D01*
X-2139530Y-6766699D01*
X-2360470Y-6766699D01*
X-2500190Y-6626979D01*
X-2639910Y-6766699D01*
X-2860850Y-6766699D01*
X-3017079Y-6610470D01*
X-3017079Y-6389530D01*
X-2860850Y-6233301D01*
X-2639910Y-6233301D01*
X-2500190Y-6373021D01*
X-2360470Y-6233301D01*
X-2139530Y-6233301D01*
X-2000190Y-6372641D01*
X-1860850Y-6233301D01*
X-1639910Y-6233301D01*
X-1500190Y-6373021D01*
X-1360470Y-6233301D01*
X-1139530Y-6233301D01*
X-983301Y-6389530D01*
D12*
X-2488000Y+4927799D02*
X-2488000Y+4750000D01*
X-2665799Y+4750000D02*
X-2488000Y+4750000D01*
X-2310201Y+4750000D02*
X-2488000Y+4750000D01*
X-2488000Y+2427799D02*
X-2488000Y+2250000D01*
X-2665799Y+2250000D02*
X-2488000Y+2250000D01*
X-2310201Y+2250000D02*
X-2488000Y+2250000D01*
X+1488000Y-4927799D02*
X+1488000Y-4750000D01*
X+1665799Y-4750000D02*
X+1488000Y-4750000D01*
X+1310201Y-4750000D02*
X+1488000Y-4750000D01*
X+1488000Y-2427799D02*
X+1488000Y-2250000D01*
X+1665799Y-2250000D02*
X+1488000Y-2250000D01*
X+1310201Y-2250000D02*
X+1488000Y-2250000D01*
D13*
X-7000000Y+6627000D03*
X-6873000Y+6500000D03*
X-7000000Y+6373000D03*
X-7000000Y+5877000D03*
X-6873000Y+5750000D03*
X-7000000Y+5623000D03*
X-7000000Y+4877000D03*
X-6873000Y+4750000D03*
X-7000000Y+4623000D03*
X-7000000Y+4127000D03*
X-6873000Y+4000000D03*
X-7000000Y+3873000D03*
X-7000000Y+3127000D03*
X-6873000Y+3000000D03*
X-7000000Y+2873000D03*
X-7000000Y+2377000D03*
X-6873000Y+2250000D03*
X-7000000Y+2123000D03*
X-7000000Y+1377000D03*
X-6873000Y+1250000D03*
X-7000000Y+1123000D03*
X-7000000Y+627000D03*
X-6873000Y+500000D03*
X-7000000Y+373000D03*
X-7000000Y-373000D03*
X-6873000Y-500000D03*
X-7000000Y-627000D03*
X-7000000Y-1123000D03*
X-6873000Y-1250000D03*
X-7000000Y-1377000D03*
X-7000000Y-2123000D03*
X-6873000Y-2250000D03*
X-7000000Y-2377000D03*
X-7000000Y-2873000D03*
X-6873000Y-3000000D03*
X-7000000Y-3127000D03*
X-7000000Y-3873000D03*
X-6873000Y-4000000D03*
X-7000000Y-4127000D03*
X-7000000Y-4623000D03*
X-6873000Y-4750000D03*
X-7000000Y-4877000D03*
X-7000000Y-5623000D03*
X-6873000Y-5750000D03*
X-7000000Y-5877000D03*
X-7000000Y-6373000D03*
X-6873000Y-6500000D03*
X-7000000Y-6627000D03*
D14*
X-3250000Y+4750000D03*
D15*
X-3250000Y+4496000D03*
X-3250000Y+4242000D03*
X-3250000Y+3988000D03*
X-3250000Y+3734000D03*
X-3250000Y+3480000D03*
X-3250000Y+3226000D03*
X-3250000Y+2972000D03*
X-2488000Y+2972000D03*
X-2488000Y+3226000D03*
X-2488000Y+3480000D03*
X-2488000Y+3734000D03*
X-2488000Y+3988000D03*
X-2488000Y+4242000D03*
X-2488000Y+4496000D03*
X-2488000Y+4750000D03*
D14*
X-3250000Y+2250000D03*
D15*
X-3250000Y+1996000D03*
X-3250000Y+1742000D03*
X-3250000Y+1488000D03*
X-3250000Y+1234000D03*
X-3250000Y+980000D03*
X-3250000Y+726000D03*
X-3250000Y+472000D03*
X-2488000Y+472000D03*
X-2488000Y+726000D03*
X-2488000Y+980000D03*
X-2488000Y+1234000D03*
X-2488000Y+1488000D03*
X-2488000Y+1742000D03*
X-2488000Y+1996000D03*
X-2488000Y+2250000D03*
D16*
X-2250000Y+6500000D03*
X-1749620Y+6500000D03*
X-1250000Y+6500000D03*
X-749620Y+6500000D03*
X-250000Y+6500000D03*
X+250380Y+6500000D03*
X+750000Y+6500000D03*
X+1250380Y+6500000D03*
D14*
X+2250000Y-4750000D03*
D15*
X+2250000Y-4496000D03*
X+2250000Y-4242000D03*
X+2250000Y-3988000D03*
X+2250000Y-3734000D03*
X+2250000Y-3480000D03*
X+2250000Y-3226000D03*
X+2250000Y-2972000D03*
X+1488000Y-2972000D03*
X+1488000Y-3226000D03*
X+1488000Y-3480000D03*
X+1488000Y-3734000D03*
X+1488000Y-3988000D03*
X+1488000Y-4242000D03*
X+1488000Y-4496000D03*
X+1488000Y-4750000D03*
D14*
X+2250000Y-2250000D03*
D15*
X+2250000Y-1996000D03*
X+2250000Y-1742000D03*
X+2250000Y-1488000D03*
X+2250000Y-1234000D03*
X+2250000Y-980000D03*
X+2250000Y-726000D03*
X+2250000Y-472000D03*
X+1488000Y-472000D03*
X+1488000Y-726000D03*
X+1488000Y-980000D03*
X+1488000Y-1234000D03*
X+1488000Y-1488000D03*
X+1488000Y-1742000D03*
X+1488000Y-1996000D03*
X+1488000Y-2250000D03*
D13*
X+6250000Y-6627000D03*
X+6123000Y-6500000D03*
X+6250000Y-6373000D03*
X+6250000Y-5877000D03*
X+6123000Y-5750000D03*
X+6250000Y-5623000D03*
X+6250000Y-4877000D03*
X+6123000Y-4750000D03*
X+6250000Y-4623000D03*
X+6250000Y-4127000D03*
X+6123000Y-4000000D03*
X+6250000Y-3873000D03*
X+6250000Y-3127000D03*
X+6123000Y-3000000D03*
X+6250000Y-2873000D03*
X+6250000Y-2377000D03*
X+6123000Y-2250000D03*
X+6250000Y-2123000D03*
X+6250000Y-1377000D03*
X+6123000Y-1250000D03*
X+6250000Y-1123000D03*
X+6250000Y-627000D03*
X+6123000Y-500000D03*
X+6250000Y-373000D03*
X+6250000Y+373000D03*
X+6123000Y+500000D03*
X+6250000Y+627000D03*
X+6250000Y+1123000D03*
X+6123000Y+1250000D03*
X+6250000Y+1377000D03*
X+6250000Y+2123000D03*
X+6123000Y+2250000D03*
X+6250000Y+2377000D03*
X+6250000Y+2873000D03*
X+6123000Y+3000000D03*
X+6250000Y+3127000D03*
X+6250000Y+3873000D03*
X+6123000Y+4000000D03*
X+6250000Y+4127000D03*
X+6250000Y+4623000D03*
X+6123000Y+4750000D03*
X+6250000Y+4877000D03*
X+6250000Y+5623000D03*
X+6123000Y+5750000D03*
X+6250000Y+5877000D03*
X+6250000Y+6373000D03*
X+6123000Y+6500000D03*
X+6250000Y+6627000D03*
D16*
X+1250380Y-6500000D03*
X+750000Y-6500000D03*
X+250000Y-6500000D03*
X-250380Y-6500000D03*
X-1250000Y-6500000D03*
X-1750380Y-6500000D03*
X-2250000Y-6500000D03*
X-2750380Y-6500000D03*
D17*
X-8000000Y-7250000D02*
X+7000000Y-7250000D01*
X+7000000Y+7250000D01*
X-8000000Y+7250000D01*
X-8000000Y-7250000D01*
M02*
