G04 PROTEUS GERBER X2 FILE*
%TF.GenerationSoftware,Labcenter,Proteus,8.13-SP0-Build31525*%
%TF.CreationDate,2024-05-03T02:53:20+00:00*%
%TF.FileFunction,Legend,Top*%
%TF.FilePolarity,Positive*%
%TF.Part,Single*%
%TF.SameCoordinates,{137ac57f-fe3b-4056-9d75-0866be3f0e1c}*%
%FSLAX45Y45*%
%MOMM*%
G01*
%TA.AperFunction,Material*%
%ADD18C,0.203200*%
%TA.AperFunction,Profile*%
%ADD17C,0.203200*%
%TD.AperFunction*%
D18*
X-7127000Y+6690500D02*
X-7127000Y+6309500D01*
X-7000000Y+6741300D02*
X-7023688Y+6739117D01*
X-7046633Y+6733362D01*
X-7087312Y+6715900D01*
X-7127000Y+6690500D01*
X-7000000Y+6741300D02*
X-6948065Y+6740438D01*
X-6900037Y+6729046D01*
X-6856846Y+6708204D01*
X-6819422Y+6678991D01*
X-6788695Y+6642484D01*
X-6765596Y+6599764D01*
X-6751054Y+6551910D01*
X-6746000Y+6500000D01*
X-7000000Y+6258700D02*
X-7023688Y+6260883D01*
X-7046633Y+6266638D01*
X-7087312Y+6284100D01*
X-7127000Y+6309500D01*
X-7000000Y+6258700D02*
X-6948065Y+6259562D01*
X-6900037Y+6270954D01*
X-6856846Y+6291796D01*
X-6819422Y+6321009D01*
X-6788695Y+6357516D01*
X-6765596Y+6400236D01*
X-6751054Y+6448090D01*
X-6746000Y+6500000D01*
X-6674880Y+6373000D02*
X-6705360Y+6404750D01*
X-6705360Y+6436500D01*
X-6674880Y+6468250D01*
X-6644400Y+6468250D01*
X-6613920Y+6436500D01*
X-6613920Y+6404750D01*
X-6644400Y+6373000D01*
X-6674880Y+6373000D01*
X-6644400Y+6436500D02*
X-6613920Y+6468250D01*
X-6674880Y+6531750D02*
X-6705360Y+6563500D01*
X-6613920Y+6563500D01*
X-7127000Y+5940500D02*
X-7127000Y+5559500D01*
X-7000000Y+5991300D02*
X-7023688Y+5989117D01*
X-7046633Y+5983362D01*
X-7087312Y+5965900D01*
X-7127000Y+5940500D01*
X-7000000Y+5991300D02*
X-6948065Y+5990438D01*
X-6900037Y+5979046D01*
X-6856846Y+5958204D01*
X-6819422Y+5928991D01*
X-6788695Y+5892484D01*
X-6765596Y+5849764D01*
X-6751054Y+5801910D01*
X-6746000Y+5750000D01*
X-7000000Y+5508700D02*
X-7023688Y+5510883D01*
X-7046633Y+5516638D01*
X-7087312Y+5534100D01*
X-7127000Y+5559500D01*
X-7000000Y+5508700D02*
X-6948065Y+5509562D01*
X-6900037Y+5520954D01*
X-6856846Y+5541796D01*
X-6819422Y+5571009D01*
X-6788695Y+5607516D01*
X-6765596Y+5650236D01*
X-6751054Y+5698090D01*
X-6746000Y+5750000D01*
X-6674880Y+5623000D02*
X-6705360Y+5654750D01*
X-6705360Y+5686500D01*
X-6674880Y+5718250D01*
X-6644400Y+5718250D01*
X-6613920Y+5686500D01*
X-6613920Y+5654750D01*
X-6644400Y+5623000D01*
X-6674880Y+5623000D01*
X-6644400Y+5686500D02*
X-6613920Y+5718250D01*
X-6690120Y+5765875D02*
X-6705360Y+5781750D01*
X-6705360Y+5829375D01*
X-6690120Y+5845250D01*
X-6674880Y+5845250D01*
X-6659640Y+5829375D01*
X-6659640Y+5781750D01*
X-6644400Y+5765875D01*
X-6613920Y+5765875D01*
X-6613920Y+5845250D01*
X-7127000Y+4940500D02*
X-7127000Y+4559500D01*
X-7000000Y+4991300D02*
X-7023688Y+4989117D01*
X-7046633Y+4983362D01*
X-7087312Y+4965900D01*
X-7127000Y+4940500D01*
X-7000000Y+4991300D02*
X-6948065Y+4990438D01*
X-6900037Y+4979046D01*
X-6856846Y+4958204D01*
X-6819422Y+4928991D01*
X-6788695Y+4892484D01*
X-6765596Y+4849764D01*
X-6751054Y+4801910D01*
X-6746000Y+4750000D01*
X-7000000Y+4508700D02*
X-7023688Y+4510883D01*
X-7046633Y+4516638D01*
X-7087312Y+4534100D01*
X-7127000Y+4559500D01*
X-7000000Y+4508700D02*
X-6948065Y+4509562D01*
X-6900037Y+4520954D01*
X-6856846Y+4541796D01*
X-6819422Y+4571009D01*
X-6788695Y+4607516D01*
X-6765596Y+4650236D01*
X-6751054Y+4698090D01*
X-6746000Y+4750000D01*
X-6674880Y+4623000D02*
X-6705360Y+4654750D01*
X-6705360Y+4686500D01*
X-6674880Y+4718250D01*
X-6644400Y+4718250D01*
X-6613920Y+4686500D01*
X-6613920Y+4654750D01*
X-6644400Y+4623000D01*
X-6674880Y+4623000D01*
X-6644400Y+4686500D02*
X-6613920Y+4718250D01*
X-6690120Y+4765875D02*
X-6705360Y+4781750D01*
X-6705360Y+4829375D01*
X-6690120Y+4845250D01*
X-6674880Y+4845250D01*
X-6659640Y+4829375D01*
X-6644400Y+4845250D01*
X-6629160Y+4845250D01*
X-6613920Y+4829375D01*
X-6613920Y+4781750D01*
X-6629160Y+4765875D01*
X-6659640Y+4797625D02*
X-6659640Y+4829375D01*
X-7127000Y+4190500D02*
X-7127000Y+3809500D01*
X-7000000Y+4241300D02*
X-7023688Y+4239117D01*
X-7046633Y+4233362D01*
X-7087312Y+4215900D01*
X-7127000Y+4190500D01*
X-7000000Y+4241300D02*
X-6948065Y+4240438D01*
X-6900037Y+4229046D01*
X-6856846Y+4208204D01*
X-6819422Y+4178991D01*
X-6788695Y+4142484D01*
X-6765596Y+4099764D01*
X-6751054Y+4051910D01*
X-6746000Y+4000000D01*
X-7000000Y+3758700D02*
X-7023688Y+3760883D01*
X-7046633Y+3766638D01*
X-7087312Y+3784100D01*
X-7127000Y+3809500D01*
X-7000000Y+3758700D02*
X-6948065Y+3759562D01*
X-6900037Y+3770954D01*
X-6856846Y+3791796D01*
X-6819422Y+3821009D01*
X-6788695Y+3857516D01*
X-6765596Y+3900236D01*
X-6751054Y+3948090D01*
X-6746000Y+4000000D01*
X-6674880Y+3873000D02*
X-6705360Y+3904750D01*
X-6705360Y+3936500D01*
X-6674880Y+3968250D01*
X-6644400Y+3968250D01*
X-6613920Y+3936500D01*
X-6613920Y+3904750D01*
X-6644400Y+3873000D01*
X-6674880Y+3873000D01*
X-6644400Y+3936500D02*
X-6613920Y+3968250D01*
X-6644400Y+4095250D02*
X-6644400Y+4000000D01*
X-6705360Y+4063500D01*
X-6613920Y+4063500D01*
X-7127000Y+3190500D02*
X-7127000Y+2809500D01*
X-7000000Y+3241300D02*
X-7023688Y+3239117D01*
X-7046633Y+3233362D01*
X-7087312Y+3215900D01*
X-7127000Y+3190500D01*
X-7000000Y+3241300D02*
X-6948065Y+3240438D01*
X-6900037Y+3229046D01*
X-6856846Y+3208204D01*
X-6819422Y+3178991D01*
X-6788695Y+3142484D01*
X-6765596Y+3099764D01*
X-6751054Y+3051910D01*
X-6746000Y+3000000D01*
X-7000000Y+2758700D02*
X-7023688Y+2760883D01*
X-7046633Y+2766638D01*
X-7087312Y+2784100D01*
X-7127000Y+2809500D01*
X-7000000Y+2758700D02*
X-6948065Y+2759562D01*
X-6900037Y+2770954D01*
X-6856846Y+2791796D01*
X-6819422Y+2821009D01*
X-6788695Y+2857516D01*
X-6765596Y+2900236D01*
X-6751054Y+2948090D01*
X-6746000Y+3000000D01*
X-6674880Y+2873000D02*
X-6705360Y+2904750D01*
X-6705360Y+2936500D01*
X-6674880Y+2968250D01*
X-6644400Y+2968250D01*
X-6613920Y+2936500D01*
X-6613920Y+2904750D01*
X-6644400Y+2873000D01*
X-6674880Y+2873000D01*
X-6644400Y+2936500D02*
X-6613920Y+2968250D01*
X-6705360Y+3095250D02*
X-6705360Y+3015875D01*
X-6674880Y+3015875D01*
X-6674880Y+3079375D01*
X-6659640Y+3095250D01*
X-6629160Y+3095250D01*
X-6613920Y+3079375D01*
X-6613920Y+3031750D01*
X-6629160Y+3015875D01*
X-7127000Y+2440500D02*
X-7127000Y+2059500D01*
X-7000000Y+2491300D02*
X-7023688Y+2489117D01*
X-7046633Y+2483362D01*
X-7087312Y+2465900D01*
X-7127000Y+2440500D01*
X-7000000Y+2491300D02*
X-6948065Y+2490438D01*
X-6900037Y+2479046D01*
X-6856846Y+2458204D01*
X-6819422Y+2428991D01*
X-6788695Y+2392484D01*
X-6765596Y+2349764D01*
X-6751054Y+2301910D01*
X-6746000Y+2250000D01*
X-7000000Y+2008700D02*
X-7023688Y+2010883D01*
X-7046633Y+2016638D01*
X-7087312Y+2034100D01*
X-7127000Y+2059500D01*
X-7000000Y+2008700D02*
X-6948065Y+2009562D01*
X-6900037Y+2020954D01*
X-6856846Y+2041796D01*
X-6819422Y+2071009D01*
X-6788695Y+2107516D01*
X-6765596Y+2150236D01*
X-6751054Y+2198090D01*
X-6746000Y+2250000D01*
X-6674880Y+2123000D02*
X-6705360Y+2154750D01*
X-6705360Y+2186500D01*
X-6674880Y+2218250D01*
X-6644400Y+2218250D01*
X-6613920Y+2186500D01*
X-6613920Y+2154750D01*
X-6644400Y+2123000D01*
X-6674880Y+2123000D01*
X-6644400Y+2186500D02*
X-6613920Y+2218250D01*
X-6690120Y+2345250D02*
X-6705360Y+2329375D01*
X-6705360Y+2281750D01*
X-6690120Y+2265875D01*
X-6629160Y+2265875D01*
X-6613920Y+2281750D01*
X-6613920Y+2329375D01*
X-6629160Y+2345250D01*
X-6644400Y+2345250D01*
X-6659640Y+2329375D01*
X-6659640Y+2265875D01*
X-7127000Y+1440500D02*
X-7127000Y+1059500D01*
X-7000000Y+1491300D02*
X-7023688Y+1489117D01*
X-7046633Y+1483362D01*
X-7087312Y+1465900D01*
X-7127000Y+1440500D01*
X-7000000Y+1491300D02*
X-6948065Y+1490438D01*
X-6900037Y+1479046D01*
X-6856846Y+1458204D01*
X-6819422Y+1428991D01*
X-6788695Y+1392484D01*
X-6765596Y+1349764D01*
X-6751054Y+1301910D01*
X-6746000Y+1250000D01*
X-7000000Y+1008700D02*
X-7023688Y+1010883D01*
X-7046633Y+1016638D01*
X-7087312Y+1034100D01*
X-7127000Y+1059500D01*
X-7000000Y+1008700D02*
X-6948065Y+1009562D01*
X-6900037Y+1020954D01*
X-6856846Y+1041796D01*
X-6819422Y+1071009D01*
X-6788695Y+1107516D01*
X-6765596Y+1150236D01*
X-6751054Y+1198090D01*
X-6746000Y+1250000D01*
X-6674880Y+1123000D02*
X-6705360Y+1154750D01*
X-6705360Y+1186500D01*
X-6674880Y+1218250D01*
X-6644400Y+1218250D01*
X-6613920Y+1186500D01*
X-6613920Y+1154750D01*
X-6644400Y+1123000D01*
X-6674880Y+1123000D01*
X-6644400Y+1186500D02*
X-6613920Y+1218250D01*
X-6705360Y+1265875D02*
X-6705360Y+1345250D01*
X-6690120Y+1345250D01*
X-6613920Y+1265875D01*
X-7127000Y+690500D02*
X-7127000Y+309500D01*
X-7000000Y+741300D02*
X-7023688Y+739117D01*
X-7046633Y+733362D01*
X-7087312Y+715900D01*
X-7127000Y+690500D01*
X-7000000Y+741300D02*
X-6948065Y+740438D01*
X-6900037Y+729046D01*
X-6856846Y+708204D01*
X-6819422Y+678991D01*
X-6788695Y+642484D01*
X-6765596Y+599764D01*
X-6751054Y+551910D01*
X-6746000Y+500000D01*
X-7000000Y+258700D02*
X-7023688Y+260883D01*
X-7046633Y+266638D01*
X-7087312Y+284100D01*
X-7127000Y+309500D01*
X-7000000Y+258700D02*
X-6948065Y+259562D01*
X-6900037Y+270954D01*
X-6856846Y+291796D01*
X-6819422Y+321009D01*
X-6788695Y+357516D01*
X-6765596Y+400236D01*
X-6751054Y+448090D01*
X-6746000Y+500000D01*
X-6674880Y+373000D02*
X-6705360Y+404750D01*
X-6705360Y+436500D01*
X-6674880Y+468250D01*
X-6644400Y+468250D01*
X-6613920Y+436500D01*
X-6613920Y+404750D01*
X-6644400Y+373000D01*
X-6674880Y+373000D01*
X-6644400Y+436500D02*
X-6613920Y+468250D01*
X-6659640Y+531750D02*
X-6674880Y+515875D01*
X-6690120Y+515875D01*
X-6705360Y+531750D01*
X-6705360Y+579375D01*
X-6690120Y+595250D01*
X-6674880Y+595250D01*
X-6659640Y+579375D01*
X-6659640Y+531750D01*
X-6644400Y+515875D01*
X-6629160Y+515875D01*
X-6613920Y+531750D01*
X-6613920Y+579375D01*
X-6629160Y+595250D01*
X-6644400Y+595250D01*
X-6659640Y+579375D01*
X-7127000Y-309500D02*
X-7127000Y-690500D01*
X-7000000Y-258700D02*
X-7023688Y-260883D01*
X-7046633Y-266638D01*
X-7087312Y-284100D01*
X-7127000Y-309500D01*
X-7000000Y-258700D02*
X-6948065Y-259562D01*
X-6900037Y-270954D01*
X-6856846Y-291796D01*
X-6819422Y-321009D01*
X-6788695Y-357516D01*
X-6765596Y-400236D01*
X-6751054Y-448090D01*
X-6746000Y-500000D01*
X-7000000Y-741300D02*
X-7023688Y-739117D01*
X-7046633Y-733362D01*
X-7087312Y-715900D01*
X-7127000Y-690500D01*
X-7000000Y-741300D02*
X-6948065Y-740438D01*
X-6900037Y-729046D01*
X-6856846Y-708204D01*
X-6819422Y-678991D01*
X-6788695Y-642484D01*
X-6765596Y-599764D01*
X-6751054Y-551910D01*
X-6746000Y-500000D01*
X-6674880Y-627000D02*
X-6705360Y-595250D01*
X-6705360Y-563500D01*
X-6674880Y-531750D01*
X-6644400Y-531750D01*
X-6613920Y-563500D01*
X-6613920Y-595250D01*
X-6644400Y-627000D01*
X-6674880Y-627000D01*
X-6644400Y-563500D02*
X-6613920Y-531750D01*
X-6674880Y-404750D02*
X-6659640Y-420625D01*
X-6659640Y-468250D01*
X-6674880Y-484125D01*
X-6690120Y-484125D01*
X-6705360Y-468250D01*
X-6705360Y-420625D01*
X-6690120Y-404750D01*
X-6629160Y-404750D01*
X-6613920Y-420625D01*
X-6613920Y-468250D01*
X-7127000Y-1059500D02*
X-7127000Y-1440500D01*
X-7000000Y-1008700D02*
X-7023688Y-1010883D01*
X-7046633Y-1016638D01*
X-7087312Y-1034100D01*
X-7127000Y-1059500D01*
X-7000000Y-1008700D02*
X-6948065Y-1009562D01*
X-6900037Y-1020954D01*
X-6856846Y-1041796D01*
X-6819422Y-1071009D01*
X-6788695Y-1107516D01*
X-6765596Y-1150236D01*
X-6751054Y-1198090D01*
X-6746000Y-1250000D01*
X-7000000Y-1491300D02*
X-7023688Y-1489117D01*
X-7046633Y-1483362D01*
X-7087312Y-1465900D01*
X-7127000Y-1440500D01*
X-7000000Y-1491300D02*
X-6948065Y-1490438D01*
X-6900037Y-1479046D01*
X-6856846Y-1458204D01*
X-6819422Y-1428991D01*
X-6788695Y-1392484D01*
X-6765596Y-1349764D01*
X-6751054Y-1301910D01*
X-6746000Y-1250000D01*
X-6674880Y-1440500D02*
X-6705360Y-1408750D01*
X-6705360Y-1377000D01*
X-6674880Y-1345250D01*
X-6644400Y-1345250D01*
X-6613920Y-1377000D01*
X-6613920Y-1408750D01*
X-6644400Y-1440500D01*
X-6674880Y-1440500D01*
X-6644400Y-1377000D02*
X-6613920Y-1345250D01*
X-6674880Y-1281750D02*
X-6705360Y-1250000D01*
X-6613920Y-1250000D01*
X-6629160Y-1186500D02*
X-6690120Y-1186500D01*
X-6705360Y-1170625D01*
X-6705360Y-1107125D01*
X-6690120Y-1091250D01*
X-6629160Y-1091250D01*
X-6613920Y-1107125D01*
X-6613920Y-1170625D01*
X-6629160Y-1186500D01*
X-6613920Y-1186500D02*
X-6705360Y-1091250D01*
X-7127000Y-2059500D02*
X-7127000Y-2440500D01*
X-7000000Y-2008700D02*
X-7023688Y-2010883D01*
X-7046633Y-2016638D01*
X-7087312Y-2034100D01*
X-7127000Y-2059500D01*
X-7000000Y-2008700D02*
X-6948065Y-2009562D01*
X-6900037Y-2020954D01*
X-6856846Y-2041796D01*
X-6819422Y-2071009D01*
X-6788695Y-2107516D01*
X-6765596Y-2150236D01*
X-6751054Y-2198090D01*
X-6746000Y-2250000D01*
X-7000000Y-2491300D02*
X-7023688Y-2489117D01*
X-7046633Y-2483362D01*
X-7087312Y-2465900D01*
X-7127000Y-2440500D01*
X-7000000Y-2491300D02*
X-6948065Y-2490438D01*
X-6900037Y-2479046D01*
X-6856846Y-2458204D01*
X-6819422Y-2428991D01*
X-6788695Y-2392484D01*
X-6765596Y-2349764D01*
X-6751054Y-2301910D01*
X-6746000Y-2250000D01*
X-6674880Y-2440500D02*
X-6705360Y-2408750D01*
X-6705360Y-2377000D01*
X-6674880Y-2345250D01*
X-6644400Y-2345250D01*
X-6613920Y-2377000D01*
X-6613920Y-2408750D01*
X-6644400Y-2440500D01*
X-6674880Y-2440500D01*
X-6644400Y-2377000D02*
X-6613920Y-2345250D01*
X-6674880Y-2281750D02*
X-6705360Y-2250000D01*
X-6613920Y-2250000D01*
X-6674880Y-2154750D02*
X-6705360Y-2123000D01*
X-6613920Y-2123000D01*
X-7127000Y-2809500D02*
X-7127000Y-3190500D01*
X-7000000Y-2758700D02*
X-7023688Y-2760883D01*
X-7046633Y-2766638D01*
X-7087312Y-2784100D01*
X-7127000Y-2809500D01*
X-7000000Y-2758700D02*
X-6948065Y-2759562D01*
X-6900037Y-2770954D01*
X-6856846Y-2791796D01*
X-6819422Y-2821009D01*
X-6788695Y-2857516D01*
X-6765596Y-2900236D01*
X-6751054Y-2948090D01*
X-6746000Y-3000000D01*
X-7000000Y-3241300D02*
X-7023688Y-3239117D01*
X-7046633Y-3233362D01*
X-7087312Y-3215900D01*
X-7127000Y-3190500D01*
X-7000000Y-3241300D02*
X-6948065Y-3240438D01*
X-6900037Y-3229046D01*
X-6856846Y-3208204D01*
X-6819422Y-3178991D01*
X-6788695Y-3142484D01*
X-6765596Y-3099764D01*
X-6751054Y-3051910D01*
X-6746000Y-3000000D01*
X-6674880Y-3190500D02*
X-6705360Y-3158750D01*
X-6705360Y-3127000D01*
X-6674880Y-3095250D01*
X-6644400Y-3095250D01*
X-6613920Y-3127000D01*
X-6613920Y-3158750D01*
X-6644400Y-3190500D01*
X-6674880Y-3190500D01*
X-6644400Y-3127000D02*
X-6613920Y-3095250D01*
X-6674880Y-3031750D02*
X-6705360Y-3000000D01*
X-6613920Y-3000000D01*
X-6690120Y-2920625D02*
X-6705360Y-2904750D01*
X-6705360Y-2857125D01*
X-6690120Y-2841250D01*
X-6674880Y-2841250D01*
X-6659640Y-2857125D01*
X-6659640Y-2904750D01*
X-6644400Y-2920625D01*
X-6613920Y-2920625D01*
X-6613920Y-2841250D01*
X-7127000Y-3809500D02*
X-7127000Y-4190500D01*
X-7000000Y-3758700D02*
X-7023688Y-3760883D01*
X-7046633Y-3766638D01*
X-7087312Y-3784100D01*
X-7127000Y-3809500D01*
X-7000000Y-3758700D02*
X-6948065Y-3759562D01*
X-6900037Y-3770954D01*
X-6856846Y-3791796D01*
X-6819422Y-3821009D01*
X-6788695Y-3857516D01*
X-6765596Y-3900236D01*
X-6751054Y-3948090D01*
X-6746000Y-4000000D01*
X-7000000Y-4241300D02*
X-7023688Y-4239117D01*
X-7046633Y-4233362D01*
X-7087312Y-4215900D01*
X-7127000Y-4190500D01*
X-7000000Y-4241300D02*
X-6948065Y-4240438D01*
X-6900037Y-4229046D01*
X-6856846Y-4208204D01*
X-6819422Y-4178991D01*
X-6788695Y-4142484D01*
X-6765596Y-4099764D01*
X-6751054Y-4051910D01*
X-6746000Y-4000000D01*
X-6674880Y-4190500D02*
X-6705360Y-4158750D01*
X-6705360Y-4127000D01*
X-6674880Y-4095250D01*
X-6644400Y-4095250D01*
X-6613920Y-4127000D01*
X-6613920Y-4158750D01*
X-6644400Y-4190500D01*
X-6674880Y-4190500D01*
X-6644400Y-4127000D02*
X-6613920Y-4095250D01*
X-6674880Y-4031750D02*
X-6705360Y-4000000D01*
X-6613920Y-4000000D01*
X-6690120Y-3920625D02*
X-6705360Y-3904750D01*
X-6705360Y-3857125D01*
X-6690120Y-3841250D01*
X-6674880Y-3841250D01*
X-6659640Y-3857125D01*
X-6644400Y-3841250D01*
X-6629160Y-3841250D01*
X-6613920Y-3857125D01*
X-6613920Y-3904750D01*
X-6629160Y-3920625D01*
X-6659640Y-3888875D02*
X-6659640Y-3857125D01*
X-7127000Y-4559500D02*
X-7127000Y-4940500D01*
X-7000000Y-4508700D02*
X-7023688Y-4510883D01*
X-7046633Y-4516638D01*
X-7087312Y-4534100D01*
X-7127000Y-4559500D01*
X-7000000Y-4508700D02*
X-6948065Y-4509562D01*
X-6900037Y-4520954D01*
X-6856846Y-4541796D01*
X-6819422Y-4571009D01*
X-6788695Y-4607516D01*
X-6765596Y-4650236D01*
X-6751054Y-4698090D01*
X-6746000Y-4750000D01*
X-7000000Y-4991300D02*
X-7023688Y-4989117D01*
X-7046633Y-4983362D01*
X-7087312Y-4965900D01*
X-7127000Y-4940500D01*
X-7000000Y-4991300D02*
X-6948065Y-4990438D01*
X-6900037Y-4979046D01*
X-6856846Y-4958204D01*
X-6819422Y-4928991D01*
X-6788695Y-4892484D01*
X-6765596Y-4849764D01*
X-6751054Y-4801910D01*
X-6746000Y-4750000D01*
X-6674880Y-4940500D02*
X-6705360Y-4908750D01*
X-6705360Y-4877000D01*
X-6674880Y-4845250D01*
X-6644400Y-4845250D01*
X-6613920Y-4877000D01*
X-6613920Y-4908750D01*
X-6644400Y-4940500D01*
X-6674880Y-4940500D01*
X-6644400Y-4877000D02*
X-6613920Y-4845250D01*
X-6674880Y-4781750D02*
X-6705360Y-4750000D01*
X-6613920Y-4750000D01*
X-6644400Y-4591250D02*
X-6644400Y-4686500D01*
X-6705360Y-4623000D01*
X-6613920Y-4623000D01*
X-7127000Y-5559500D02*
X-7127000Y-5940500D01*
X-7000000Y-5508700D02*
X-7023688Y-5510883D01*
X-7046633Y-5516638D01*
X-7087312Y-5534100D01*
X-7127000Y-5559500D01*
X-7000000Y-5508700D02*
X-6948065Y-5509562D01*
X-6900037Y-5520954D01*
X-6856846Y-5541796D01*
X-6819422Y-5571009D01*
X-6788695Y-5607516D01*
X-6765596Y-5650236D01*
X-6751054Y-5698090D01*
X-6746000Y-5750000D01*
X-7000000Y-5991300D02*
X-7023688Y-5989117D01*
X-7046633Y-5983362D01*
X-7087312Y-5965900D01*
X-7127000Y-5940500D01*
X-7000000Y-5991300D02*
X-6948065Y-5990438D01*
X-6900037Y-5979046D01*
X-6856846Y-5958204D01*
X-6819422Y-5928991D01*
X-6788695Y-5892484D01*
X-6765596Y-5849764D01*
X-6751054Y-5801910D01*
X-6746000Y-5750000D01*
X-6674880Y-5940500D02*
X-6705360Y-5908750D01*
X-6705360Y-5877000D01*
X-6674880Y-5845250D01*
X-6644400Y-5845250D01*
X-6613920Y-5877000D01*
X-6613920Y-5908750D01*
X-6644400Y-5940500D01*
X-6674880Y-5940500D01*
X-6644400Y-5877000D02*
X-6613920Y-5845250D01*
X-6674880Y-5781750D02*
X-6705360Y-5750000D01*
X-6613920Y-5750000D01*
X-6705360Y-5591250D02*
X-6705360Y-5670625D01*
X-6674880Y-5670625D01*
X-6674880Y-5607125D01*
X-6659640Y-5591250D01*
X-6629160Y-5591250D01*
X-6613920Y-5607125D01*
X-6613920Y-5654750D01*
X-6629160Y-5670625D01*
X-7127000Y-6309500D02*
X-7127000Y-6690500D01*
X-7000000Y-6258700D02*
X-7023688Y-6260883D01*
X-7046633Y-6266638D01*
X-7087312Y-6284100D01*
X-7127000Y-6309500D01*
X-7000000Y-6258700D02*
X-6948065Y-6259562D01*
X-6900037Y-6270954D01*
X-6856846Y-6291796D01*
X-6819422Y-6321009D01*
X-6788695Y-6357516D01*
X-6765596Y-6400236D01*
X-6751054Y-6448090D01*
X-6746000Y-6500000D01*
X-7000000Y-6741300D02*
X-7023688Y-6739117D01*
X-7046633Y-6733362D01*
X-7087312Y-6715900D01*
X-7127000Y-6690500D01*
X-7000000Y-6741300D02*
X-6948065Y-6740438D01*
X-6900037Y-6729046D01*
X-6856846Y-6708204D01*
X-6819422Y-6678991D01*
X-6788695Y-6642484D01*
X-6765596Y-6599764D01*
X-6751054Y-6551910D01*
X-6746000Y-6500000D01*
X-6674880Y-6690500D02*
X-6705360Y-6658750D01*
X-6705360Y-6627000D01*
X-6674880Y-6595250D01*
X-6644400Y-6595250D01*
X-6613920Y-6627000D01*
X-6613920Y-6658750D01*
X-6644400Y-6690500D01*
X-6674880Y-6690500D01*
X-6644400Y-6627000D02*
X-6613920Y-6595250D01*
X-6674880Y-6531750D02*
X-6705360Y-6500000D01*
X-6613920Y-6500000D01*
X-6690120Y-6341250D02*
X-6705360Y-6357125D01*
X-6705360Y-6404750D01*
X-6690120Y-6420625D01*
X-6629160Y-6420625D01*
X-6613920Y-6404750D01*
X-6613920Y-6357125D01*
X-6629160Y-6341250D01*
X-6644400Y-6341250D01*
X-6659640Y-6357125D01*
X-6659640Y-6420625D01*
X-3123000Y+4877000D02*
X-2996000Y+4877000D01*
X-2869000Y+4750000D02*
X-2843124Y+4752436D01*
X-2819152Y+4759485D01*
X-2797562Y+4770762D01*
X-2778830Y+4785878D01*
X-2763431Y+4804446D01*
X-2751842Y+4826081D01*
X-2744540Y+4850394D01*
X-2742000Y+4877000D01*
X-2869000Y+4750000D02*
X-2895606Y+4752436D01*
X-2919919Y+4759485D01*
X-2941554Y+4770762D01*
X-2960122Y+4785878D01*
X-2975238Y+4804446D01*
X-2986515Y+4826081D01*
X-2993564Y+4850394D01*
X-2996000Y+4877000D01*
X-2742000Y+4877000D02*
X-2615000Y+4877000D01*
X-3123000Y+2845000D02*
X-2615000Y+2845000D01*
X-3123000Y+4877000D02*
X-3123000Y+2845000D01*
X-2615000Y+2845000D02*
X-2615000Y+4877000D01*
X-3694500Y+4917640D02*
X-3694500Y+5009080D01*
X-3615125Y+5009080D01*
X-3599250Y+4993840D01*
X-3599250Y+4978600D01*
X-3615125Y+4963360D01*
X-3694500Y+4963360D01*
X-3567500Y+4978600D02*
X-3535750Y+5009080D01*
X-3504000Y+5009080D01*
X-3472250Y+4978600D01*
X-3472250Y+4948120D01*
X-3504000Y+4917640D01*
X-3535750Y+4917640D01*
X-3567500Y+4948120D01*
X-3567500Y+4978600D01*
X-3440500Y+4932880D02*
X-3424625Y+4917640D01*
X-3361125Y+4917640D01*
X-3345250Y+4932880D01*
X-3345250Y+4948120D01*
X-3361125Y+4963360D01*
X-3424625Y+4963360D01*
X-3440500Y+4978600D01*
X-3440500Y+4993840D01*
X-3424625Y+5009080D01*
X-3361125Y+5009080D01*
X-3345250Y+4993840D01*
X-3297625Y+5009080D02*
X-3234125Y+5009080D01*
X-3265875Y+5009080D02*
X-3265875Y+4917640D01*
X-3297625Y+4917640D02*
X-3234125Y+4917640D01*
X-3186500Y+5009080D02*
X-3091250Y+5009080D01*
X-3138875Y+5009080D02*
X-3138875Y+4917640D01*
X-3043625Y+5009080D02*
X-2980125Y+5009080D01*
X-3011875Y+5009080D02*
X-3011875Y+4917640D01*
X-3043625Y+4917640D02*
X-2980125Y+4917640D01*
X-2932500Y+5009080D02*
X-2932500Y+4963360D01*
X-2884875Y+4917640D01*
X-2837250Y+4963360D01*
X-2837250Y+5009080D01*
X-2710250Y+4917640D02*
X-2805500Y+4917640D01*
X-2805500Y+5009080D01*
X-2710250Y+5009080D01*
X-2805500Y+4963360D02*
X-2742000Y+4963360D01*
X-2678500Y+4917640D02*
X-2678500Y+5009080D01*
X-2599125Y+5009080D01*
X-2583250Y+4993840D01*
X-2583250Y+4978600D01*
X-2599125Y+4963360D01*
X-2678500Y+4963360D01*
X-2551500Y+4978600D02*
X-2519750Y+5009080D01*
X-2488000Y+5009080D01*
X-2456250Y+4978600D01*
X-2456250Y+4948120D01*
X-2488000Y+4917640D01*
X-2519750Y+4917640D01*
X-2551500Y+4948120D01*
X-2551500Y+4978600D01*
X-2424500Y+5009080D02*
X-2424500Y+4917640D01*
X-2376875Y+4963360D01*
X-2329250Y+4917640D01*
X-2329250Y+5009080D01*
X-2202250Y+4917640D02*
X-2297500Y+4917640D01*
X-2297500Y+5009080D01*
X-2202250Y+5009080D01*
X-2297500Y+4963360D02*
X-2234000Y+4963360D01*
X-2170500Y+4917640D02*
X-2170500Y+5009080D01*
X-2091125Y+5009080D01*
X-2075250Y+4993840D01*
X-2075250Y+4978600D01*
X-2091125Y+4963360D01*
X-2170500Y+4963360D01*
X-2091125Y+4963360D02*
X-2075250Y+4948120D01*
X-2075250Y+4917640D01*
X-3123000Y+2377000D02*
X-2996000Y+2377000D01*
X-2869000Y+2250000D02*
X-2843124Y+2252436D01*
X-2819152Y+2259485D01*
X-2797562Y+2270762D01*
X-2778830Y+2285878D01*
X-2763431Y+2304446D01*
X-2751842Y+2326081D01*
X-2744540Y+2350394D01*
X-2742000Y+2377000D01*
X-2869000Y+2250000D02*
X-2895606Y+2252436D01*
X-2919919Y+2259485D01*
X-2941554Y+2270762D01*
X-2960122Y+2285878D01*
X-2975238Y+2304446D01*
X-2986515Y+2326081D01*
X-2993564Y+2350394D01*
X-2996000Y+2377000D01*
X-2742000Y+2377000D02*
X-2615000Y+2377000D01*
X-3123000Y+345000D02*
X-2615000Y+345000D01*
X-3123000Y+2377000D02*
X-3123000Y+345000D01*
X-2615000Y+345000D02*
X-2615000Y+2377000D01*
X-3758000Y+2417640D02*
X-3758000Y+2509080D01*
X-3662750Y+2417640D01*
X-3662750Y+2509080D01*
X-3535750Y+2417640D02*
X-3631000Y+2417640D01*
X-3631000Y+2509080D01*
X-3535750Y+2509080D01*
X-3631000Y+2463360D02*
X-3567500Y+2463360D01*
X-3440500Y+2448120D02*
X-3408750Y+2448120D01*
X-3408750Y+2417640D01*
X-3472250Y+2417640D01*
X-3504000Y+2448120D01*
X-3504000Y+2478600D01*
X-3472250Y+2509080D01*
X-3424625Y+2509080D01*
X-3408750Y+2493840D01*
X-3377000Y+2417640D02*
X-3377000Y+2478600D01*
X-3345250Y+2509080D01*
X-3313500Y+2509080D01*
X-3281750Y+2478600D01*
X-3281750Y+2417640D01*
X-3377000Y+2448120D02*
X-3281750Y+2448120D01*
X-3250000Y+2509080D02*
X-3154750Y+2509080D01*
X-3202375Y+2509080D02*
X-3202375Y+2417640D01*
X-3107125Y+2509080D02*
X-3043625Y+2509080D01*
X-3075375Y+2509080D02*
X-3075375Y+2417640D01*
X-3107125Y+2417640D02*
X-3043625Y+2417640D01*
X-2996000Y+2509080D02*
X-2996000Y+2463360D01*
X-2948375Y+2417640D01*
X-2900750Y+2463360D01*
X-2900750Y+2509080D01*
X-2773750Y+2417640D02*
X-2869000Y+2417640D01*
X-2869000Y+2509080D01*
X-2773750Y+2509080D01*
X-2869000Y+2463360D02*
X-2805500Y+2463360D01*
X-2678500Y+2448120D02*
X-2646750Y+2448120D01*
X-2646750Y+2417640D01*
X-2710250Y+2417640D01*
X-2742000Y+2448120D01*
X-2742000Y+2478600D01*
X-2710250Y+2509080D01*
X-2662625Y+2509080D01*
X-2646750Y+2493840D01*
X-2615000Y+2417640D02*
X-2615000Y+2509080D01*
X-2535625Y+2509080D01*
X-2519750Y+2493840D01*
X-2519750Y+2478600D01*
X-2535625Y+2463360D01*
X-2615000Y+2463360D01*
X-2535625Y+2463360D02*
X-2519750Y+2448120D01*
X-2519750Y+2417640D01*
X-2488000Y+2478600D02*
X-2456250Y+2509080D01*
X-2424500Y+2509080D01*
X-2392750Y+2478600D01*
X-2392750Y+2448120D01*
X-2424500Y+2417640D01*
X-2456250Y+2417640D01*
X-2488000Y+2448120D01*
X-2488000Y+2478600D01*
X-2361000Y+2509080D02*
X-2361000Y+2432880D01*
X-2345125Y+2417640D01*
X-2281625Y+2417640D01*
X-2265750Y+2432880D01*
X-2265750Y+2509080D01*
X-2234000Y+2417640D02*
X-2234000Y+2509080D01*
X-2138750Y+2417640D01*
X-2138750Y+2509080D01*
X-2107000Y+2417640D02*
X-2107000Y+2509080D01*
X-2043500Y+2509080D01*
X-2011750Y+2478600D01*
X-2011750Y+2448120D01*
X-2043500Y+2417640D01*
X-2107000Y+2417640D01*
X-2504000Y+6119000D02*
X-2504000Y+6881000D01*
X-1488000Y+6881000D02*
X-1488000Y+6119000D01*
X-2504000Y+6119000D02*
X-1488000Y+6119000D01*
X-2504000Y+6881000D02*
X-1488000Y+6881000D01*
X-2123000Y+6952120D02*
X-2123000Y+6936880D01*
X-2107125Y+6921640D01*
X-2043625Y+6921640D01*
X-2027750Y+6936880D01*
X-2027750Y+7013080D01*
X-1964250Y+6982600D02*
X-1932500Y+7013080D01*
X-1932500Y+6921640D01*
X-1504000Y+6119000D02*
X-1504000Y+6881000D01*
X-488000Y+6881000D02*
X-488000Y+6119000D01*
X-1504000Y+6119000D02*
X-488000Y+6119000D01*
X-1504000Y+6881000D02*
X-488000Y+6881000D01*
X-1123000Y+6952120D02*
X-1123000Y+6936880D01*
X-1107125Y+6921640D01*
X-1043625Y+6921640D01*
X-1027750Y+6936880D01*
X-1027750Y+7013080D01*
X-980125Y+6997840D02*
X-964250Y+7013080D01*
X-916625Y+7013080D01*
X-900750Y+6997840D01*
X-900750Y+6982600D01*
X-916625Y+6967360D01*
X-964250Y+6967360D01*
X-980125Y+6952120D01*
X-980125Y+6921640D01*
X-900750Y+6921640D01*
X-504000Y+6119000D02*
X-504000Y+6881000D01*
X+512000Y+6881000D02*
X+512000Y+6119000D01*
X-504000Y+6119000D02*
X+512000Y+6119000D01*
X-504000Y+6881000D02*
X+512000Y+6881000D01*
X-123000Y+6952120D02*
X-123000Y+6936880D01*
X-107125Y+6921640D01*
X-43625Y+6921640D01*
X-27750Y+6936880D01*
X-27750Y+7013080D01*
X+19875Y+6997840D02*
X+35750Y+7013080D01*
X+83375Y+7013080D01*
X+99250Y+6997840D01*
X+99250Y+6982600D01*
X+83375Y+6967360D01*
X+99250Y+6952120D01*
X+99250Y+6936880D01*
X+83375Y+6921640D01*
X+35750Y+6921640D01*
X+19875Y+6936880D01*
X+51625Y+6967360D02*
X+83375Y+6967360D01*
X+496000Y+6119000D02*
X+496000Y+6881000D01*
X+1512000Y+6881000D02*
X+1512000Y+6119000D01*
X+496000Y+6119000D02*
X+1512000Y+6119000D01*
X+496000Y+6881000D02*
X+1512000Y+6881000D01*
X+877000Y+6952120D02*
X+877000Y+6936880D01*
X+892875Y+6921640D01*
X+956375Y+6921640D01*
X+972250Y+6936880D01*
X+972250Y+7013080D01*
X+1099250Y+6952120D02*
X+1004000Y+6952120D01*
X+1067500Y+7013080D01*
X+1067500Y+6921640D01*
X+2123000Y-4877000D02*
X+1996000Y-4877000D01*
X+1869000Y-4750000D02*
X+1843124Y-4752436D01*
X+1819152Y-4759485D01*
X+1797562Y-4770762D01*
X+1778830Y-4785878D01*
X+1763431Y-4804446D01*
X+1751842Y-4826081D01*
X+1744540Y-4850394D01*
X+1742000Y-4877000D01*
X+1869000Y-4750000D02*
X+1895606Y-4752436D01*
X+1919919Y-4759485D01*
X+1941554Y-4770762D01*
X+1960122Y-4785878D01*
X+1975238Y-4804446D01*
X+1986515Y-4826081D01*
X+1993564Y-4850394D01*
X+1996000Y-4877000D01*
X+1742000Y-4877000D02*
X+1615000Y-4877000D01*
X+2123000Y-2845000D02*
X+1615000Y-2845000D01*
X+2123000Y-4877000D02*
X+2123000Y-2845000D01*
X+1615000Y-2845000D02*
X+1615000Y-4877000D01*
X+1043500Y-5009080D02*
X+1043500Y-4917640D01*
X+1138750Y-5009080D01*
X+1138750Y-4917640D01*
X+1265750Y-5009080D02*
X+1170500Y-5009080D01*
X+1170500Y-4917640D01*
X+1265750Y-4917640D01*
X+1170500Y-4963360D02*
X+1234000Y-4963360D01*
X+1361000Y-4978600D02*
X+1392750Y-4978600D01*
X+1392750Y-5009080D01*
X+1329250Y-5009080D01*
X+1297500Y-4978600D01*
X+1297500Y-4948120D01*
X+1329250Y-4917640D01*
X+1376875Y-4917640D01*
X+1392750Y-4932880D01*
X+1424500Y-5009080D02*
X+1424500Y-4948120D01*
X+1456250Y-4917640D01*
X+1488000Y-4917640D01*
X+1519750Y-4948120D01*
X+1519750Y-5009080D01*
X+1424500Y-4978600D02*
X+1519750Y-4978600D01*
X+1551500Y-4917640D02*
X+1646750Y-4917640D01*
X+1599125Y-4917640D02*
X+1599125Y-5009080D01*
X+1694375Y-4917640D02*
X+1757875Y-4917640D01*
X+1726125Y-4917640D02*
X+1726125Y-5009080D01*
X+1694375Y-5009080D02*
X+1757875Y-5009080D01*
X+1805500Y-4917640D02*
X+1805500Y-4963360D01*
X+1853125Y-5009080D01*
X+1900750Y-4963360D01*
X+1900750Y-4917640D01*
X+2027750Y-5009080D02*
X+1932500Y-5009080D01*
X+1932500Y-4917640D01*
X+2027750Y-4917640D01*
X+1932500Y-4963360D02*
X+1996000Y-4963360D01*
X+2059500Y-5009080D02*
X+2059500Y-4917640D01*
X+2138875Y-4917640D01*
X+2154750Y-4932880D01*
X+2154750Y-4948120D01*
X+2138875Y-4963360D01*
X+2059500Y-4963360D01*
X+2186500Y-4948120D02*
X+2218250Y-4917640D01*
X+2250000Y-4917640D01*
X+2281750Y-4948120D01*
X+2281750Y-4978600D01*
X+2250000Y-5009080D01*
X+2218250Y-5009080D01*
X+2186500Y-4978600D01*
X+2186500Y-4948120D01*
X+2313500Y-4917640D02*
X+2313500Y-5009080D01*
X+2361125Y-4963360D01*
X+2408750Y-5009080D01*
X+2408750Y-4917640D01*
X+2535750Y-5009080D02*
X+2440500Y-5009080D01*
X+2440500Y-4917640D01*
X+2535750Y-4917640D01*
X+2440500Y-4963360D02*
X+2504000Y-4963360D01*
X+2567500Y-5009080D02*
X+2567500Y-4917640D01*
X+2646875Y-4917640D01*
X+2662750Y-4932880D01*
X+2662750Y-4948120D01*
X+2646875Y-4963360D01*
X+2567500Y-4963360D01*
X+2646875Y-4963360D02*
X+2662750Y-4978600D01*
X+2662750Y-5009080D01*
X+2123000Y-2377000D02*
X+1996000Y-2377000D01*
X+1869000Y-2250000D02*
X+1843124Y-2252436D01*
X+1819152Y-2259485D01*
X+1797562Y-2270762D01*
X+1778830Y-2285878D01*
X+1763431Y-2304446D01*
X+1751842Y-2326081D01*
X+1744540Y-2350394D01*
X+1742000Y-2377000D01*
X+1869000Y-2250000D02*
X+1895606Y-2252436D01*
X+1919919Y-2259485D01*
X+1941554Y-2270762D01*
X+1960122Y-2285878D01*
X+1975238Y-2304446D01*
X+1986515Y-2326081D01*
X+1993564Y-2350394D01*
X+1996000Y-2377000D01*
X+1742000Y-2377000D02*
X+1615000Y-2377000D01*
X+2123000Y-345000D02*
X+1615000Y-345000D01*
X+2123000Y-2377000D02*
X+2123000Y-345000D01*
X+1615000Y-345000D02*
X+1615000Y-2377000D01*
X+980000Y-2509080D02*
X+980000Y-2417640D01*
X+1059375Y-2417640D01*
X+1075250Y-2432880D01*
X+1075250Y-2448120D01*
X+1059375Y-2463360D01*
X+980000Y-2463360D01*
X+1107000Y-2448120D02*
X+1138750Y-2417640D01*
X+1170500Y-2417640D01*
X+1202250Y-2448120D01*
X+1202250Y-2478600D01*
X+1170500Y-2509080D01*
X+1138750Y-2509080D01*
X+1107000Y-2478600D01*
X+1107000Y-2448120D01*
X+1234000Y-2493840D02*
X+1249875Y-2509080D01*
X+1313375Y-2509080D01*
X+1329250Y-2493840D01*
X+1329250Y-2478600D01*
X+1313375Y-2463360D01*
X+1249875Y-2463360D01*
X+1234000Y-2448120D01*
X+1234000Y-2432880D01*
X+1249875Y-2417640D01*
X+1313375Y-2417640D01*
X+1329250Y-2432880D01*
X+1376875Y-2417640D02*
X+1440375Y-2417640D01*
X+1408625Y-2417640D02*
X+1408625Y-2509080D01*
X+1376875Y-2509080D02*
X+1440375Y-2509080D01*
X+1488000Y-2417640D02*
X+1583250Y-2417640D01*
X+1535625Y-2417640D02*
X+1535625Y-2509080D01*
X+1630875Y-2417640D02*
X+1694375Y-2417640D01*
X+1662625Y-2417640D02*
X+1662625Y-2509080D01*
X+1630875Y-2509080D02*
X+1694375Y-2509080D01*
X+1742000Y-2417640D02*
X+1742000Y-2463360D01*
X+1789625Y-2509080D01*
X+1837250Y-2463360D01*
X+1837250Y-2417640D01*
X+1964250Y-2509080D02*
X+1869000Y-2509080D01*
X+1869000Y-2417640D01*
X+1964250Y-2417640D01*
X+1869000Y-2463360D02*
X+1932500Y-2463360D01*
X+2059500Y-2478600D02*
X+2091250Y-2478600D01*
X+2091250Y-2509080D01*
X+2027750Y-2509080D01*
X+1996000Y-2478600D01*
X+1996000Y-2448120D01*
X+2027750Y-2417640D01*
X+2075375Y-2417640D01*
X+2091250Y-2432880D01*
X+2123000Y-2509080D02*
X+2123000Y-2417640D01*
X+2202375Y-2417640D01*
X+2218250Y-2432880D01*
X+2218250Y-2448120D01*
X+2202375Y-2463360D01*
X+2123000Y-2463360D01*
X+2202375Y-2463360D02*
X+2218250Y-2478600D01*
X+2218250Y-2509080D01*
X+2250000Y-2448120D02*
X+2281750Y-2417640D01*
X+2313500Y-2417640D01*
X+2345250Y-2448120D01*
X+2345250Y-2478600D01*
X+2313500Y-2509080D01*
X+2281750Y-2509080D01*
X+2250000Y-2478600D01*
X+2250000Y-2448120D01*
X+2377000Y-2417640D02*
X+2377000Y-2493840D01*
X+2392875Y-2509080D01*
X+2456375Y-2509080D01*
X+2472250Y-2493840D01*
X+2472250Y-2417640D01*
X+2504000Y-2509080D02*
X+2504000Y-2417640D01*
X+2599250Y-2509080D01*
X+2599250Y-2417640D01*
X+2631000Y-2509080D02*
X+2631000Y-2417640D01*
X+2694500Y-2417640D01*
X+2726250Y-2448120D01*
X+2726250Y-2478600D01*
X+2694500Y-2509080D01*
X+2631000Y-2509080D01*
X+6377000Y-6690500D02*
X+6377000Y-6309500D01*
X+6250000Y-6741300D02*
X+6273688Y-6739117D01*
X+6296633Y-6733362D01*
X+6337312Y-6715900D01*
X+6377000Y-6690500D01*
X+6250000Y-6741300D02*
X+6198065Y-6740438D01*
X+6150037Y-6729046D01*
X+6106846Y-6708204D01*
X+6069422Y-6678991D01*
X+6038695Y-6642484D01*
X+6015596Y-6599764D01*
X+6001054Y-6551910D01*
X+5996000Y-6500000D01*
X+6250000Y-6258700D02*
X+6273688Y-6260883D01*
X+6296633Y-6266638D01*
X+6337312Y-6284100D01*
X+6377000Y-6309500D01*
X+6250000Y-6258700D02*
X+6198065Y-6259562D01*
X+6150037Y-6270954D01*
X+6106846Y-6291796D01*
X+6069422Y-6321009D01*
X+6038695Y-6357516D01*
X+6015596Y-6400236D01*
X+6001054Y-6448090D01*
X+5996000Y-6500000D01*
X+5894400Y-6690500D02*
X+5863920Y-6658750D01*
X+5863920Y-6627000D01*
X+5894400Y-6595250D01*
X+5924880Y-6595250D01*
X+5955360Y-6627000D01*
X+5955360Y-6658750D01*
X+5924880Y-6690500D01*
X+5894400Y-6690500D01*
X+5924880Y-6627000D02*
X+5955360Y-6595250D01*
X+5894400Y-6531750D02*
X+5863920Y-6500000D01*
X+5955360Y-6500000D01*
X+5863920Y-6420625D02*
X+5863920Y-6341250D01*
X+5879160Y-6341250D01*
X+5955360Y-6420625D01*
X+6377000Y-5940500D02*
X+6377000Y-5559500D01*
X+6250000Y-5991300D02*
X+6273688Y-5989117D01*
X+6296633Y-5983362D01*
X+6337312Y-5965900D01*
X+6377000Y-5940500D01*
X+6250000Y-5991300D02*
X+6198065Y-5990438D01*
X+6150037Y-5979046D01*
X+6106846Y-5958204D01*
X+6069422Y-5928991D01*
X+6038695Y-5892484D01*
X+6015596Y-5849764D01*
X+6001054Y-5801910D01*
X+5996000Y-5750000D01*
X+6250000Y-5508700D02*
X+6273688Y-5510883D01*
X+6296633Y-5516638D01*
X+6337312Y-5534100D01*
X+6377000Y-5559500D01*
X+6250000Y-5508700D02*
X+6198065Y-5509562D01*
X+6150037Y-5520954D01*
X+6106846Y-5541796D01*
X+6069422Y-5571009D01*
X+6038695Y-5607516D01*
X+6015596Y-5650236D01*
X+6001054Y-5698090D01*
X+5996000Y-5750000D01*
X+5894400Y-5940500D02*
X+5863920Y-5908750D01*
X+5863920Y-5877000D01*
X+5894400Y-5845250D01*
X+5924880Y-5845250D01*
X+5955360Y-5877000D01*
X+5955360Y-5908750D01*
X+5924880Y-5940500D01*
X+5894400Y-5940500D01*
X+5924880Y-5877000D02*
X+5955360Y-5845250D01*
X+5894400Y-5781750D02*
X+5863920Y-5750000D01*
X+5955360Y-5750000D01*
X+5909640Y-5654750D02*
X+5894400Y-5670625D01*
X+5879160Y-5670625D01*
X+5863920Y-5654750D01*
X+5863920Y-5607125D01*
X+5879160Y-5591250D01*
X+5894400Y-5591250D01*
X+5909640Y-5607125D01*
X+5909640Y-5654750D01*
X+5924880Y-5670625D01*
X+5940120Y-5670625D01*
X+5955360Y-5654750D01*
X+5955360Y-5607125D01*
X+5940120Y-5591250D01*
X+5924880Y-5591250D01*
X+5909640Y-5607125D01*
X+6377000Y-4940500D02*
X+6377000Y-4559500D01*
X+6250000Y-4991300D02*
X+6273688Y-4989117D01*
X+6296633Y-4983362D01*
X+6337312Y-4965900D01*
X+6377000Y-4940500D01*
X+6250000Y-4991300D02*
X+6198065Y-4990438D01*
X+6150037Y-4979046D01*
X+6106846Y-4958204D01*
X+6069422Y-4928991D01*
X+6038695Y-4892484D01*
X+6015596Y-4849764D01*
X+6001054Y-4801910D01*
X+5996000Y-4750000D01*
X+6250000Y-4508700D02*
X+6273688Y-4510883D01*
X+6296633Y-4516638D01*
X+6337312Y-4534100D01*
X+6377000Y-4559500D01*
X+6250000Y-4508700D02*
X+6198065Y-4509562D01*
X+6150037Y-4520954D01*
X+6106846Y-4541796D01*
X+6069422Y-4571009D01*
X+6038695Y-4607516D01*
X+6015596Y-4650236D01*
X+6001054Y-4698090D01*
X+5996000Y-4750000D01*
X+5894400Y-4940500D02*
X+5863920Y-4908750D01*
X+5863920Y-4877000D01*
X+5894400Y-4845250D01*
X+5924880Y-4845250D01*
X+5955360Y-4877000D01*
X+5955360Y-4908750D01*
X+5924880Y-4940500D01*
X+5894400Y-4940500D01*
X+5924880Y-4877000D02*
X+5955360Y-4845250D01*
X+5894400Y-4781750D02*
X+5863920Y-4750000D01*
X+5955360Y-4750000D01*
X+5894400Y-4591250D02*
X+5909640Y-4607125D01*
X+5909640Y-4654750D01*
X+5894400Y-4670625D01*
X+5879160Y-4670625D01*
X+5863920Y-4654750D01*
X+5863920Y-4607125D01*
X+5879160Y-4591250D01*
X+5940120Y-4591250D01*
X+5955360Y-4607125D01*
X+5955360Y-4654750D01*
X+6377000Y-4190500D02*
X+6377000Y-3809500D01*
X+6250000Y-4241300D02*
X+6273688Y-4239117D01*
X+6296633Y-4233362D01*
X+6337312Y-4215900D01*
X+6377000Y-4190500D01*
X+6250000Y-4241300D02*
X+6198065Y-4240438D01*
X+6150037Y-4229046D01*
X+6106846Y-4208204D01*
X+6069422Y-4178991D01*
X+6038695Y-4142484D01*
X+6015596Y-4099764D01*
X+6001054Y-4051910D01*
X+5996000Y-4000000D01*
X+6250000Y-3758700D02*
X+6273688Y-3760883D01*
X+6296633Y-3766638D01*
X+6337312Y-3784100D01*
X+6377000Y-3809500D01*
X+6250000Y-3758700D02*
X+6198065Y-3759562D01*
X+6150037Y-3770954D01*
X+6106846Y-3791796D01*
X+6069422Y-3821009D01*
X+6038695Y-3857516D01*
X+6015596Y-3900236D01*
X+6001054Y-3948090D01*
X+5996000Y-4000000D01*
X+5894400Y-4190500D02*
X+5863920Y-4158750D01*
X+5863920Y-4127000D01*
X+5894400Y-4095250D01*
X+5924880Y-4095250D01*
X+5955360Y-4127000D01*
X+5955360Y-4158750D01*
X+5924880Y-4190500D01*
X+5894400Y-4190500D01*
X+5924880Y-4127000D02*
X+5955360Y-4095250D01*
X+5879160Y-4047625D02*
X+5863920Y-4031750D01*
X+5863920Y-3984125D01*
X+5879160Y-3968250D01*
X+5894400Y-3968250D01*
X+5909640Y-3984125D01*
X+5909640Y-4031750D01*
X+5924880Y-4047625D01*
X+5955360Y-4047625D01*
X+5955360Y-3968250D01*
X+5940120Y-3936500D02*
X+5879160Y-3936500D01*
X+5863920Y-3920625D01*
X+5863920Y-3857125D01*
X+5879160Y-3841250D01*
X+5940120Y-3841250D01*
X+5955360Y-3857125D01*
X+5955360Y-3920625D01*
X+5940120Y-3936500D01*
X+5955360Y-3936500D02*
X+5863920Y-3841250D01*
X+6377000Y-3190500D02*
X+6377000Y-2809500D01*
X+6250000Y-3241300D02*
X+6273688Y-3239117D01*
X+6296633Y-3233362D01*
X+6337312Y-3215900D01*
X+6377000Y-3190500D01*
X+6250000Y-3241300D02*
X+6198065Y-3240438D01*
X+6150037Y-3229046D01*
X+6106846Y-3208204D01*
X+6069422Y-3178991D01*
X+6038695Y-3142484D01*
X+6015596Y-3099764D01*
X+6001054Y-3051910D01*
X+5996000Y-3000000D01*
X+6250000Y-2758700D02*
X+6273688Y-2760883D01*
X+6296633Y-2766638D01*
X+6337312Y-2784100D01*
X+6377000Y-2809500D01*
X+6250000Y-2758700D02*
X+6198065Y-2759562D01*
X+6150037Y-2770954D01*
X+6106846Y-2791796D01*
X+6069422Y-2821009D01*
X+6038695Y-2857516D01*
X+6015596Y-2900236D01*
X+6001054Y-2948090D01*
X+5996000Y-3000000D01*
X+5894400Y-3190500D02*
X+5863920Y-3158750D01*
X+5863920Y-3127000D01*
X+5894400Y-3095250D01*
X+5924880Y-3095250D01*
X+5955360Y-3127000D01*
X+5955360Y-3158750D01*
X+5924880Y-3190500D01*
X+5894400Y-3190500D01*
X+5924880Y-3127000D02*
X+5955360Y-3095250D01*
X+5879160Y-3047625D02*
X+5863920Y-3031750D01*
X+5863920Y-2984125D01*
X+5879160Y-2968250D01*
X+5894400Y-2968250D01*
X+5909640Y-2984125D01*
X+5909640Y-3031750D01*
X+5924880Y-3047625D01*
X+5955360Y-3047625D01*
X+5955360Y-2968250D01*
X+5894400Y-2904750D02*
X+5863920Y-2873000D01*
X+5955360Y-2873000D01*
X+6377000Y-2440500D02*
X+6377000Y-2059500D01*
X+6250000Y-2491300D02*
X+6273688Y-2489117D01*
X+6296633Y-2483362D01*
X+6337312Y-2465900D01*
X+6377000Y-2440500D01*
X+6250000Y-2491300D02*
X+6198065Y-2490438D01*
X+6150037Y-2479046D01*
X+6106846Y-2458204D01*
X+6069422Y-2428991D01*
X+6038695Y-2392484D01*
X+6015596Y-2349764D01*
X+6001054Y-2301910D01*
X+5996000Y-2250000D01*
X+6250000Y-2008700D02*
X+6273688Y-2010883D01*
X+6296633Y-2016638D01*
X+6337312Y-2034100D01*
X+6377000Y-2059500D01*
X+6250000Y-2008700D02*
X+6198065Y-2009562D01*
X+6150037Y-2020954D01*
X+6106846Y-2041796D01*
X+6069422Y-2071009D01*
X+6038695Y-2107516D01*
X+6015596Y-2150236D01*
X+6001054Y-2198090D01*
X+5996000Y-2250000D01*
X+5894400Y-2440500D02*
X+5863920Y-2408750D01*
X+5863920Y-2377000D01*
X+5894400Y-2345250D01*
X+5924880Y-2345250D01*
X+5955360Y-2377000D01*
X+5955360Y-2408750D01*
X+5924880Y-2440500D01*
X+5894400Y-2440500D01*
X+5924880Y-2377000D02*
X+5955360Y-2345250D01*
X+5879160Y-2297625D02*
X+5863920Y-2281750D01*
X+5863920Y-2234125D01*
X+5879160Y-2218250D01*
X+5894400Y-2218250D01*
X+5909640Y-2234125D01*
X+5909640Y-2281750D01*
X+5924880Y-2297625D01*
X+5955360Y-2297625D01*
X+5955360Y-2218250D01*
X+5879160Y-2170625D02*
X+5863920Y-2154750D01*
X+5863920Y-2107125D01*
X+5879160Y-2091250D01*
X+5894400Y-2091250D01*
X+5909640Y-2107125D01*
X+5909640Y-2154750D01*
X+5924880Y-2170625D01*
X+5955360Y-2170625D01*
X+5955360Y-2091250D01*
X+6377000Y-1440500D02*
X+6377000Y-1059500D01*
X+6250000Y-1491300D02*
X+6273688Y-1489117D01*
X+6296633Y-1483362D01*
X+6337312Y-1465900D01*
X+6377000Y-1440500D01*
X+6250000Y-1491300D02*
X+6198065Y-1490438D01*
X+6150037Y-1479046D01*
X+6106846Y-1458204D01*
X+6069422Y-1428991D01*
X+6038695Y-1392484D01*
X+6015596Y-1349764D01*
X+6001054Y-1301910D01*
X+5996000Y-1250000D01*
X+6250000Y-1008700D02*
X+6273688Y-1010883D01*
X+6296633Y-1016638D01*
X+6337312Y-1034100D01*
X+6377000Y-1059500D01*
X+6250000Y-1008700D02*
X+6198065Y-1009562D01*
X+6150037Y-1020954D01*
X+6106846Y-1041796D01*
X+6069422Y-1071009D01*
X+6038695Y-1107516D01*
X+6015596Y-1150236D01*
X+6001054Y-1198090D01*
X+5996000Y-1250000D01*
X+5894400Y-1440500D02*
X+5863920Y-1408750D01*
X+5863920Y-1377000D01*
X+5894400Y-1345250D01*
X+5924880Y-1345250D01*
X+5955360Y-1377000D01*
X+5955360Y-1408750D01*
X+5924880Y-1440500D01*
X+5894400Y-1440500D01*
X+5924880Y-1377000D02*
X+5955360Y-1345250D01*
X+5879160Y-1297625D02*
X+5863920Y-1281750D01*
X+5863920Y-1234125D01*
X+5879160Y-1218250D01*
X+5894400Y-1218250D01*
X+5909640Y-1234125D01*
X+5909640Y-1281750D01*
X+5924880Y-1297625D01*
X+5955360Y-1297625D01*
X+5955360Y-1218250D01*
X+5879160Y-1170625D02*
X+5863920Y-1154750D01*
X+5863920Y-1107125D01*
X+5879160Y-1091250D01*
X+5894400Y-1091250D01*
X+5909640Y-1107125D01*
X+5924880Y-1091250D01*
X+5940120Y-1091250D01*
X+5955360Y-1107125D01*
X+5955360Y-1154750D01*
X+5940120Y-1170625D01*
X+5909640Y-1138875D02*
X+5909640Y-1107125D01*
X+6377000Y-690500D02*
X+6377000Y-309500D01*
X+6250000Y-741300D02*
X+6273688Y-739117D01*
X+6296633Y-733362D01*
X+6337312Y-715900D01*
X+6377000Y-690500D01*
X+6250000Y-741300D02*
X+6198065Y-740438D01*
X+6150037Y-729046D01*
X+6106846Y-708204D01*
X+6069422Y-678991D01*
X+6038695Y-642484D01*
X+6015596Y-599764D01*
X+6001054Y-551910D01*
X+5996000Y-500000D01*
X+6250000Y-258700D02*
X+6273688Y-260883D01*
X+6296633Y-266638D01*
X+6337312Y-284100D01*
X+6377000Y-309500D01*
X+6250000Y-258700D02*
X+6198065Y-259562D01*
X+6150037Y-270954D01*
X+6106846Y-291796D01*
X+6069422Y-321009D01*
X+6038695Y-357516D01*
X+6015596Y-400236D01*
X+6001054Y-448090D01*
X+5996000Y-500000D01*
X+5894400Y-690500D02*
X+5863920Y-658750D01*
X+5863920Y-627000D01*
X+5894400Y-595250D01*
X+5924880Y-595250D01*
X+5955360Y-627000D01*
X+5955360Y-658750D01*
X+5924880Y-690500D01*
X+5894400Y-690500D01*
X+5924880Y-627000D02*
X+5955360Y-595250D01*
X+5879160Y-547625D02*
X+5863920Y-531750D01*
X+5863920Y-484125D01*
X+5879160Y-468250D01*
X+5894400Y-468250D01*
X+5909640Y-484125D01*
X+5909640Y-531750D01*
X+5924880Y-547625D01*
X+5955360Y-547625D01*
X+5955360Y-468250D01*
X+5924880Y-341250D02*
X+5924880Y-436500D01*
X+5863920Y-373000D01*
X+5955360Y-373000D01*
X+6377000Y+309500D02*
X+6377000Y+690500D01*
X+6250000Y+258700D02*
X+6273688Y+260883D01*
X+6296633Y+266638D01*
X+6337312Y+284100D01*
X+6377000Y+309500D01*
X+6250000Y+258700D02*
X+6198065Y+259562D01*
X+6150037Y+270954D01*
X+6106846Y+291796D01*
X+6069422Y+321009D01*
X+6038695Y+357516D01*
X+6015596Y+400236D01*
X+6001054Y+448090D01*
X+5996000Y+500000D01*
X+6250000Y+741300D02*
X+6273688Y+739117D01*
X+6296633Y+733362D01*
X+6337312Y+715900D01*
X+6377000Y+690500D01*
X+6250000Y+741300D02*
X+6198065Y+740438D01*
X+6150037Y+729046D01*
X+6106846Y+708204D01*
X+6069422Y+678991D01*
X+6038695Y+642484D01*
X+6015596Y+599764D01*
X+6001054Y+551910D01*
X+5996000Y+500000D01*
X+5894400Y+309500D02*
X+5863920Y+341250D01*
X+5863920Y+373000D01*
X+5894400Y+404750D01*
X+5924880Y+404750D01*
X+5955360Y+373000D01*
X+5955360Y+341250D01*
X+5924880Y+309500D01*
X+5894400Y+309500D01*
X+5924880Y+373000D02*
X+5955360Y+404750D01*
X+5879160Y+452375D02*
X+5863920Y+468250D01*
X+5863920Y+515875D01*
X+5879160Y+531750D01*
X+5894400Y+531750D01*
X+5909640Y+515875D01*
X+5909640Y+468250D01*
X+5924880Y+452375D01*
X+5955360Y+452375D01*
X+5955360Y+531750D01*
X+5863920Y+658750D02*
X+5863920Y+579375D01*
X+5894400Y+579375D01*
X+5894400Y+642875D01*
X+5909640Y+658750D01*
X+5940120Y+658750D01*
X+5955360Y+642875D01*
X+5955360Y+595250D01*
X+5940120Y+579375D01*
X+6377000Y+1059500D02*
X+6377000Y+1440500D01*
X+6250000Y+1008700D02*
X+6273688Y+1010883D01*
X+6296633Y+1016638D01*
X+6337312Y+1034100D01*
X+6377000Y+1059500D01*
X+6250000Y+1008700D02*
X+6198065Y+1009562D01*
X+6150037Y+1020954D01*
X+6106846Y+1041796D01*
X+6069422Y+1071009D01*
X+6038695Y+1107516D01*
X+6015596Y+1150236D01*
X+6001054Y+1198090D01*
X+5996000Y+1250000D01*
X+6250000Y+1491300D02*
X+6273688Y+1489117D01*
X+6296633Y+1483362D01*
X+6337312Y+1465900D01*
X+6377000Y+1440500D01*
X+6250000Y+1491300D02*
X+6198065Y+1490438D01*
X+6150037Y+1479046D01*
X+6106846Y+1458204D01*
X+6069422Y+1428991D01*
X+6038695Y+1392484D01*
X+6015596Y+1349764D01*
X+6001054Y+1301910D01*
X+5996000Y+1250000D01*
X+5894400Y+1059500D02*
X+5863920Y+1091250D01*
X+5863920Y+1123000D01*
X+5894400Y+1154750D01*
X+5924880Y+1154750D01*
X+5955360Y+1123000D01*
X+5955360Y+1091250D01*
X+5924880Y+1059500D01*
X+5894400Y+1059500D01*
X+5924880Y+1123000D02*
X+5955360Y+1154750D01*
X+5879160Y+1202375D02*
X+5863920Y+1218250D01*
X+5863920Y+1265875D01*
X+5879160Y+1281750D01*
X+5894400Y+1281750D01*
X+5909640Y+1265875D01*
X+5909640Y+1218250D01*
X+5924880Y+1202375D01*
X+5955360Y+1202375D01*
X+5955360Y+1281750D01*
X+5879160Y+1408750D02*
X+5863920Y+1392875D01*
X+5863920Y+1345250D01*
X+5879160Y+1329375D01*
X+5940120Y+1329375D01*
X+5955360Y+1345250D01*
X+5955360Y+1392875D01*
X+5940120Y+1408750D01*
X+5924880Y+1408750D01*
X+5909640Y+1392875D01*
X+5909640Y+1329375D01*
X+6377000Y+2059500D02*
X+6377000Y+2440500D01*
X+6250000Y+2008700D02*
X+6273688Y+2010883D01*
X+6296633Y+2016638D01*
X+6337312Y+2034100D01*
X+6377000Y+2059500D01*
X+6250000Y+2008700D02*
X+6198065Y+2009562D01*
X+6150037Y+2020954D01*
X+6106846Y+2041796D01*
X+6069422Y+2071009D01*
X+6038695Y+2107516D01*
X+6015596Y+2150236D01*
X+6001054Y+2198090D01*
X+5996000Y+2250000D01*
X+6250000Y+2491300D02*
X+6273688Y+2489117D01*
X+6296633Y+2483362D01*
X+6337312Y+2465900D01*
X+6377000Y+2440500D01*
X+6250000Y+2491300D02*
X+6198065Y+2490438D01*
X+6150037Y+2479046D01*
X+6106846Y+2458204D01*
X+6069422Y+2428991D01*
X+6038695Y+2392484D01*
X+6015596Y+2349764D01*
X+6001054Y+2301910D01*
X+5996000Y+2250000D01*
X+5894400Y+2059500D02*
X+5863920Y+2091250D01*
X+5863920Y+2123000D01*
X+5894400Y+2154750D01*
X+5924880Y+2154750D01*
X+5955360Y+2123000D01*
X+5955360Y+2091250D01*
X+5924880Y+2059500D01*
X+5894400Y+2059500D01*
X+5924880Y+2123000D02*
X+5955360Y+2154750D01*
X+5879160Y+2202375D02*
X+5863920Y+2218250D01*
X+5863920Y+2265875D01*
X+5879160Y+2281750D01*
X+5894400Y+2281750D01*
X+5909640Y+2265875D01*
X+5909640Y+2218250D01*
X+5924880Y+2202375D01*
X+5955360Y+2202375D01*
X+5955360Y+2281750D01*
X+5863920Y+2329375D02*
X+5863920Y+2408750D01*
X+5879160Y+2408750D01*
X+5955360Y+2329375D01*
X+6377000Y+2809500D02*
X+6377000Y+3190500D01*
X+6250000Y+2758700D02*
X+6273688Y+2760883D01*
X+6296633Y+2766638D01*
X+6337312Y+2784100D01*
X+6377000Y+2809500D01*
X+6250000Y+2758700D02*
X+6198065Y+2759562D01*
X+6150037Y+2770954D01*
X+6106846Y+2791796D01*
X+6069422Y+2821009D01*
X+6038695Y+2857516D01*
X+6015596Y+2900236D01*
X+6001054Y+2948090D01*
X+5996000Y+3000000D01*
X+6250000Y+3241300D02*
X+6273688Y+3239117D01*
X+6296633Y+3233362D01*
X+6337312Y+3215900D01*
X+6377000Y+3190500D01*
X+6250000Y+3241300D02*
X+6198065Y+3240438D01*
X+6150037Y+3229046D01*
X+6106846Y+3208204D01*
X+6069422Y+3178991D01*
X+6038695Y+3142484D01*
X+6015596Y+3099764D01*
X+6001054Y+3051910D01*
X+5996000Y+3000000D01*
X+5894400Y+2809500D02*
X+5863920Y+2841250D01*
X+5863920Y+2873000D01*
X+5894400Y+2904750D01*
X+5924880Y+2904750D01*
X+5955360Y+2873000D01*
X+5955360Y+2841250D01*
X+5924880Y+2809500D01*
X+5894400Y+2809500D01*
X+5924880Y+2873000D02*
X+5955360Y+2904750D01*
X+5879160Y+2952375D02*
X+5863920Y+2968250D01*
X+5863920Y+3015875D01*
X+5879160Y+3031750D01*
X+5894400Y+3031750D01*
X+5909640Y+3015875D01*
X+5909640Y+2968250D01*
X+5924880Y+2952375D01*
X+5955360Y+2952375D01*
X+5955360Y+3031750D01*
X+5909640Y+3095250D02*
X+5894400Y+3079375D01*
X+5879160Y+3079375D01*
X+5863920Y+3095250D01*
X+5863920Y+3142875D01*
X+5879160Y+3158750D01*
X+5894400Y+3158750D01*
X+5909640Y+3142875D01*
X+5909640Y+3095250D01*
X+5924880Y+3079375D01*
X+5940120Y+3079375D01*
X+5955360Y+3095250D01*
X+5955360Y+3142875D01*
X+5940120Y+3158750D01*
X+5924880Y+3158750D01*
X+5909640Y+3142875D01*
X+6377000Y+3809500D02*
X+6377000Y+4190500D01*
X+6250000Y+3758700D02*
X+6273688Y+3760883D01*
X+6296633Y+3766638D01*
X+6337312Y+3784100D01*
X+6377000Y+3809500D01*
X+6250000Y+3758700D02*
X+6198065Y+3759562D01*
X+6150037Y+3770954D01*
X+6106846Y+3791796D01*
X+6069422Y+3821009D01*
X+6038695Y+3857516D01*
X+6015596Y+3900236D01*
X+6001054Y+3948090D01*
X+5996000Y+4000000D01*
X+6250000Y+4241300D02*
X+6273688Y+4239117D01*
X+6296633Y+4233362D01*
X+6337312Y+4215900D01*
X+6377000Y+4190500D01*
X+6250000Y+4241300D02*
X+6198065Y+4240438D01*
X+6150037Y+4229046D01*
X+6106846Y+4208204D01*
X+6069422Y+4178991D01*
X+6038695Y+4142484D01*
X+6015596Y+4099764D01*
X+6001054Y+4051910D01*
X+5996000Y+4000000D01*
X+5894400Y+3809500D02*
X+5863920Y+3841250D01*
X+5863920Y+3873000D01*
X+5894400Y+3904750D01*
X+5924880Y+3904750D01*
X+5955360Y+3873000D01*
X+5955360Y+3841250D01*
X+5924880Y+3809500D01*
X+5894400Y+3809500D01*
X+5924880Y+3873000D02*
X+5955360Y+3904750D01*
X+5879160Y+3952375D02*
X+5863920Y+3968250D01*
X+5863920Y+4015875D01*
X+5879160Y+4031750D01*
X+5894400Y+4031750D01*
X+5909640Y+4015875D01*
X+5909640Y+3968250D01*
X+5924880Y+3952375D01*
X+5955360Y+3952375D01*
X+5955360Y+4031750D01*
X+5894400Y+4158750D02*
X+5909640Y+4142875D01*
X+5909640Y+4095250D01*
X+5894400Y+4079375D01*
X+5879160Y+4079375D01*
X+5863920Y+4095250D01*
X+5863920Y+4142875D01*
X+5879160Y+4158750D01*
X+5940120Y+4158750D01*
X+5955360Y+4142875D01*
X+5955360Y+4095250D01*
X+6377000Y+4559500D02*
X+6377000Y+4940500D01*
X+6250000Y+4508700D02*
X+6273688Y+4510883D01*
X+6296633Y+4516638D01*
X+6337312Y+4534100D01*
X+6377000Y+4559500D01*
X+6250000Y+4508700D02*
X+6198065Y+4509562D01*
X+6150037Y+4520954D01*
X+6106846Y+4541796D01*
X+6069422Y+4571009D01*
X+6038695Y+4607516D01*
X+6015596Y+4650236D01*
X+6001054Y+4698090D01*
X+5996000Y+4750000D01*
X+6250000Y+4991300D02*
X+6273688Y+4989117D01*
X+6296633Y+4983362D01*
X+6337312Y+4965900D01*
X+6377000Y+4940500D01*
X+6250000Y+4991300D02*
X+6198065Y+4990438D01*
X+6150037Y+4979046D01*
X+6106846Y+4958204D01*
X+6069422Y+4928991D01*
X+6038695Y+4892484D01*
X+6015596Y+4849764D01*
X+6001054Y+4801910D01*
X+5996000Y+4750000D01*
X+5894400Y+4559500D02*
X+5863920Y+4591250D01*
X+5863920Y+4623000D01*
X+5894400Y+4654750D01*
X+5924880Y+4654750D01*
X+5955360Y+4623000D01*
X+5955360Y+4591250D01*
X+5924880Y+4559500D01*
X+5894400Y+4559500D01*
X+5924880Y+4623000D02*
X+5955360Y+4654750D01*
X+5879160Y+4702375D02*
X+5863920Y+4718250D01*
X+5863920Y+4765875D01*
X+5879160Y+4781750D01*
X+5894400Y+4781750D01*
X+5909640Y+4765875D01*
X+5924880Y+4781750D01*
X+5940120Y+4781750D01*
X+5955360Y+4765875D01*
X+5955360Y+4718250D01*
X+5940120Y+4702375D01*
X+5909640Y+4734125D02*
X+5909640Y+4765875D01*
X+5940120Y+4813500D02*
X+5879160Y+4813500D01*
X+5863920Y+4829375D01*
X+5863920Y+4892875D01*
X+5879160Y+4908750D01*
X+5940120Y+4908750D01*
X+5955360Y+4892875D01*
X+5955360Y+4829375D01*
X+5940120Y+4813500D01*
X+5955360Y+4813500D02*
X+5863920Y+4908750D01*
X+6377000Y+5559500D02*
X+6377000Y+5940500D01*
X+6250000Y+5508700D02*
X+6273688Y+5510883D01*
X+6296633Y+5516638D01*
X+6337312Y+5534100D01*
X+6377000Y+5559500D01*
X+6250000Y+5508700D02*
X+6198065Y+5509562D01*
X+6150037Y+5520954D01*
X+6106846Y+5541796D01*
X+6069422Y+5571009D01*
X+6038695Y+5607516D01*
X+6015596Y+5650236D01*
X+6001054Y+5698090D01*
X+5996000Y+5750000D01*
X+6250000Y+5991300D02*
X+6273688Y+5989117D01*
X+6296633Y+5983362D01*
X+6337312Y+5965900D01*
X+6377000Y+5940500D01*
X+6250000Y+5991300D02*
X+6198065Y+5990438D01*
X+6150037Y+5979046D01*
X+6106846Y+5958204D01*
X+6069422Y+5928991D01*
X+6038695Y+5892484D01*
X+6015596Y+5849764D01*
X+6001054Y+5801910D01*
X+5996000Y+5750000D01*
X+5894400Y+5559500D02*
X+5863920Y+5591250D01*
X+5863920Y+5623000D01*
X+5894400Y+5654750D01*
X+5924880Y+5654750D01*
X+5955360Y+5623000D01*
X+5955360Y+5591250D01*
X+5924880Y+5559500D01*
X+5894400Y+5559500D01*
X+5924880Y+5623000D02*
X+5955360Y+5654750D01*
X+5879160Y+5702375D02*
X+5863920Y+5718250D01*
X+5863920Y+5765875D01*
X+5879160Y+5781750D01*
X+5894400Y+5781750D01*
X+5909640Y+5765875D01*
X+5924880Y+5781750D01*
X+5940120Y+5781750D01*
X+5955360Y+5765875D01*
X+5955360Y+5718250D01*
X+5940120Y+5702375D01*
X+5909640Y+5734125D02*
X+5909640Y+5765875D01*
X+5894400Y+5845250D02*
X+5863920Y+5877000D01*
X+5955360Y+5877000D01*
X+6377000Y+6309500D02*
X+6377000Y+6690500D01*
X+6250000Y+6258700D02*
X+6273688Y+6260883D01*
X+6296633Y+6266638D01*
X+6337312Y+6284100D01*
X+6377000Y+6309500D01*
X+6250000Y+6258700D02*
X+6198065Y+6259562D01*
X+6150037Y+6270954D01*
X+6106846Y+6291796D01*
X+6069422Y+6321009D01*
X+6038695Y+6357516D01*
X+6015596Y+6400236D01*
X+6001054Y+6448090D01*
X+5996000Y+6500000D01*
X+6250000Y+6741300D02*
X+6273688Y+6739117D01*
X+6296633Y+6733362D01*
X+6337312Y+6715900D01*
X+6377000Y+6690500D01*
X+6250000Y+6741300D02*
X+6198065Y+6740438D01*
X+6150037Y+6729046D01*
X+6106846Y+6708204D01*
X+6069422Y+6678991D01*
X+6038695Y+6642484D01*
X+6015596Y+6599764D01*
X+6001054Y+6551910D01*
X+5996000Y+6500000D01*
X+5894400Y+6309500D02*
X+5863920Y+6341250D01*
X+5863920Y+6373000D01*
X+5894400Y+6404750D01*
X+5924880Y+6404750D01*
X+5955360Y+6373000D01*
X+5955360Y+6341250D01*
X+5924880Y+6309500D01*
X+5894400Y+6309500D01*
X+5924880Y+6373000D02*
X+5955360Y+6404750D01*
X+5879160Y+6452375D02*
X+5863920Y+6468250D01*
X+5863920Y+6515875D01*
X+5879160Y+6531750D01*
X+5894400Y+6531750D01*
X+5909640Y+6515875D01*
X+5924880Y+6531750D01*
X+5940120Y+6531750D01*
X+5955360Y+6515875D01*
X+5955360Y+6468250D01*
X+5940120Y+6452375D01*
X+5909640Y+6484125D02*
X+5909640Y+6515875D01*
X+5879160Y+6579375D02*
X+5863920Y+6595250D01*
X+5863920Y+6642875D01*
X+5879160Y+6658750D01*
X+5894400Y+6658750D01*
X+5909640Y+6642875D01*
X+5909640Y+6595250D01*
X+5924880Y+6579375D01*
X+5955360Y+6579375D01*
X+5955360Y+6658750D01*
D17*
X-8000000Y-7250000D02*
X+7000000Y-7250000D01*
X+7000000Y+7250000D01*
X-8000000Y+7250000D01*
X-8000000Y-7250000D01*
D18*
X+1504380Y-6119000D02*
X+1504380Y-6881000D01*
X+488380Y-6881000D02*
X+488380Y-6119000D01*
X+1504380Y-6119000D02*
X+488380Y-6119000D01*
X+1504380Y-6881000D02*
X+488380Y-6881000D01*
X+869380Y-6982600D02*
X+869380Y-6997840D01*
X+885255Y-7013080D01*
X+948755Y-7013080D01*
X+964630Y-6997840D01*
X+964630Y-6921640D01*
X+1091630Y-6921640D02*
X+1012255Y-6921640D01*
X+1012255Y-6952120D01*
X+1075755Y-6952120D01*
X+1091630Y-6967360D01*
X+1091630Y-6997840D01*
X+1075755Y-7013080D01*
X+1028130Y-7013080D01*
X+1012255Y-6997840D01*
X+504000Y-6119000D02*
X+504000Y-6881000D01*
X-512000Y-6881000D02*
X-512000Y-6119000D01*
X+504000Y-6119000D02*
X-512000Y-6119000D01*
X+504000Y-6881000D02*
X-512000Y-6881000D01*
X-131000Y-6982600D02*
X-131000Y-6997840D01*
X-115125Y-7013080D01*
X-51625Y-7013080D01*
X-35750Y-6997840D01*
X-35750Y-6921640D01*
X+91250Y-6936880D02*
X+75375Y-6921640D01*
X+27750Y-6921640D01*
X+11875Y-6936880D01*
X+11875Y-6997840D01*
X+27750Y-7013080D01*
X+75375Y-7013080D01*
X+91250Y-6997840D01*
X+91250Y-6982600D01*
X+75375Y-6967360D01*
X+11875Y-6967360D01*
X-996000Y-6119000D02*
X-996000Y-6881000D01*
X-2012000Y-6881000D02*
X-2012000Y-6119000D01*
X-996000Y-6119000D02*
X-2012000Y-6119000D01*
X-996000Y-6881000D02*
X-2012000Y-6881000D01*
X-1631000Y-6982600D02*
X-1631000Y-6997840D01*
X-1615125Y-7013080D01*
X-1551625Y-7013080D01*
X-1535750Y-6997840D01*
X-1535750Y-6921640D01*
X-1488125Y-6921640D02*
X-1408750Y-6921640D01*
X-1408750Y-6936880D01*
X-1488125Y-7013080D01*
X-1996000Y-6119000D02*
X-1996000Y-6881000D01*
X-3012000Y-6881000D02*
X-3012000Y-6119000D01*
X-1996000Y-6119000D02*
X-3012000Y-6119000D01*
X-1996000Y-6881000D02*
X-3012000Y-6881000D01*
X-2631000Y-6982600D02*
X-2631000Y-6997840D01*
X-2615125Y-7013080D01*
X-2551625Y-7013080D01*
X-2535750Y-6997840D01*
X-2535750Y-6921640D01*
X-2472250Y-6967360D02*
X-2488125Y-6952120D01*
X-2488125Y-6936880D01*
X-2472250Y-6921640D01*
X-2424625Y-6921640D01*
X-2408750Y-6936880D01*
X-2408750Y-6952120D01*
X-2424625Y-6967360D01*
X-2472250Y-6967360D01*
X-2488125Y-6982600D01*
X-2488125Y-6997840D01*
X-2472250Y-7013080D01*
X-2424625Y-7013080D01*
X-2408750Y-6997840D01*
X-2408750Y-6982600D01*
X-2424625Y-6967360D01*
M02*
